<?xml version="1.0" encoding="UTF-8" standalone="no"?>
<!DOCTYPE svg PUBLIC "-//W3C//DTD SVG 1.1//EN"
 "http://www.w3.org/Graphics/SVG/1.1/DTD/svg11.dtd">
<!-- Generated by graphviz version 12.2.1 (20241206.2353)
 -->
<!-- Title: FH&#45;STECE2023 Pages: 1 -->
<svg width="3439pt" height="369pt"
 viewBox="0.00 0.00 3439.33 368.68" xmlns="http://www.w3.org/2000/svg" xmlns:xlink="http://www.w3.org/1999/xlink">
<g id="graph0" class="graph" transform="scale(1 1) rotate(0) translate(4 364.68)">
<title>FH&#45;STECE2023</title>
<polygon fill="white" stroke="none" points="-4,4 -4,-364.68 3435.33,-364.68 3435.33,4 -4,4"/>
<g id="clust1" class="cluster">
<title>clusterLegend</title>
<polygon fill="none" stroke="black" points="8,-74.94 8,-352.68 544,-352.68 544,-74.94 8,-74.94"/>
<text text-anchor="middle" x="276" y="-335.38" font-family="Times,serif" font-size="14.00">Legend</text>
</g>
<!-- legendNode0 -->
<g id="node1" class="node">
<title>legendNode0</title>
<polygon fill="none" stroke="black" points="280.29,-284.23 283.14,-284.33 285.95,-284.47 288.72,-284.67 291.44,-284.91 294.1,-285.21 296.68,-285.54 299.18,-285.93 301.59,-286.36 303.89,-286.83 306.09,-287.34 308.17,-287.89 310.12,-288.49 311.94,-289.12 313.62,-289.78 315.17,-290.49 316.57,-291.22 317.82,-291.98 318.92,-292.77 319.87,-293.59 320.66,-294.43 321.31,-295.29 321.8,-296.17 322.15,-297.07 322.34,-297.98 322.4,-298.9 322.31,-299.83 322.08,-300.77 321.73,-301.71 321.24,-302.65 320.64,-303.59 319.92,-304.53 319.08,-305.46 318.14,-306.38 317.11,-307.29 315.98,-308.19 314.77,-309.07 313.48,-309.93 312.11,-310.77 310.68,-311.59 309.18,-312.38 307.63,-313.14 306.03,-313.87 304.39,-314.57 302.7,-315.24 300.98,-315.87 299.23,-316.46 297.46,-317.02 295.65,-317.53 293.83,-318 292,-318.43 290.14,-318.81 288.28,-319.15 286.4,-319.44 284.52,-319.69 282.63,-319.88 280.74,-320.03 278.85,-320.13 276.95,-320.18 275.05,-320.18 273.15,-320.13 271.26,-320.03 269.37,-319.88 267.48,-319.69 265.6,-319.44 263.72,-319.15 261.86,-318.81 260,-318.43 258.17,-318 256.35,-317.53 254.54,-317.02 252.77,-316.46 251.02,-315.87 249.3,-315.24 247.61,-314.57 245.97,-313.87 244.37,-313.14 242.82,-312.38 241.32,-311.59 239.89,-310.77 238.52,-309.93 237.23,-309.07 236.02,-308.19 234.89,-307.29 233.86,-306.38 232.92,-305.46 232.08,-304.53 231.36,-303.59 230.76,-302.65 230.27,-301.71 229.92,-300.77 229.69,-299.83 229.6,-298.9 229.66,-297.98 229.85,-297.07 230.2,-296.17 230.69,-295.29 231.34,-294.43 232.13,-293.59 233.08,-292.77 234.18,-291.98 235.43,-291.22 236.83,-290.49 238.38,-289.78 240.06,-289.12 241.88,-288.49 243.83,-287.89 245.91,-287.34 248.11,-286.83 250.41,-286.36 252.82,-285.93 255.32,-285.54 257.9,-285.21 260.56,-284.91 263.28,-284.67 266.05,-284.47 268.86,-284.33 271.71,-284.23 274.57,-284.18 277.43,-284.18 280.29,-284.23"/>
<text text-anchor="middle" x="276" y="-297.9" font-family="Times,serif" font-size="12.00">Executable</text>
</g>
<!-- legendNode1 -->
<g id="node2" class="node">
<title>legendNode1</title>
<polygon fill="none" stroke="black" points="390.42,-201.85 390.42,-216.76 357.96,-227.31 312.04,-227.31 279.58,-216.76 279.58,-201.85 312.04,-191.31 357.96,-191.31 390.42,-201.85"/>
<text text-anchor="middle" x="335" y="-205.03" font-family="Times,serif" font-size="12.00">Static Library</text>
</g>
<!-- legendNode0&#45;&gt;legendNode1 -->
<g id="edge1" class="edge">
<title>legendNode0&#45;&gt;legendNode1</title>
<path fill="none" stroke="black" d="M287.1,-284.09C295.7,-270.84 307.77,-252.25 317.64,-237.05"/>
<polygon fill="black" stroke="black" points="320.42,-239.19 322.93,-228.9 314.55,-235.38 320.42,-239.19"/>
</g>
<!-- legendNode2 -->
<g id="node3" class="node">
<title>legendNode2</title>
<polygon fill="none" stroke="black" points="532.07,-201.85 532.07,-216.76 496.88,-227.31 447.12,-227.31 411.93,-216.76 411.93,-201.85 447.12,-191.31 496.88,-191.31 532.07,-201.85"/>
<polygon fill="none" stroke="black" points="536.07,-198.87 536.07,-219.74 497.47,-231.31 446.53,-231.31 407.93,-219.74 407.93,-198.87 446.53,-187.31 497.47,-187.31 536.07,-198.87"/>
<text text-anchor="middle" x="472" y="-205.03" font-family="Times,serif" font-size="12.00">Shared Library</text>
</g>
<!-- legendNode0&#45;&gt;legendNode2 -->
<g id="edge2" class="edge">
<title>legendNode0&#45;&gt;legendNode2</title>
<path fill="none" stroke="black" d="M306.62,-286.98C337.88,-272.49 386.87,-249.78 423.43,-232.83"/>
<polygon fill="black" stroke="black" points="424.89,-236.01 432.49,-228.63 421.94,-229.66 424.89,-236.01"/>
</g>
<!-- legendNode3 -->
<g id="node4" class="node">
<title>legendNode3</title>
<polygon fill="none" stroke="black" points="149.65,-201.85 149.65,-216.76 112.95,-227.31 61.05,-227.31 24.35,-216.76 24.35,-201.85 61.05,-191.31 112.95,-191.31 149.65,-201.85"/>
<polygon fill="none" stroke="black" points="153.65,-198.84 153.65,-219.78 113.51,-231.31 60.49,-231.31 20.35,-219.78 20.35,-198.84 60.49,-187.31 113.51,-187.31 153.65,-198.84"/>
<polygon fill="none" stroke="black" points="157.65,-195.83 157.65,-222.79 114.08,-235.31 59.92,-235.31 16.35,-222.79 16.35,-195.83 59.92,-183.31 114.08,-183.31 157.65,-195.83"/>
<text text-anchor="middle" x="87" y="-205.03" font-family="Times,serif" font-size="12.00">Module Library</text>
</g>
<!-- legendNode0&#45;&gt;legendNode3 -->
<!-- legendNode7 -->
<g id="node8" class="node">
<title>legendNode7</title>
<polygon fill="none" stroke="black" points="261.88,-227.31 176.12,-227.31 176.12,-191.31 261.88,-191.31 261.88,-227.31"/>
<text text-anchor="middle" x="219" y="-205.03" font-family="Times,serif" font-size="12.00">Custom Target</text>
</g>
<!-- legendNode0&#45;&gt;legendNode7 -->
<!-- legendNode4 -->
<g id="node5" class="node">
<title>legendNode4</title>
<polygon fill="none" stroke="black" points="391.08,-106.5 316,-118.94 240.92,-106.5 269.6,-86.37 362.4,-86.37 391.08,-106.5"/>
<text text-anchor="middle" x="316" y="-96.66" font-family="Times,serif" font-size="12.00">Interface Library</text>
</g>
<!-- legendNode1&#45;&gt;legendNode4 -->
<g id="edge4" class="edge">
<title>legendNode1&#45;&gt;legendNode4</title>
<path fill="none" stroke="black" stroke-dasharray="5,2" d="M331.95,-191.22C328.99,-174.68 324.47,-149.33 320.99,-129.86"/>
<polygon fill="black" stroke="black" points="324.45,-129.35 319.25,-120.12 317.56,-130.58 324.45,-129.35"/>
<text text-anchor="middle" x="350.64" y="-150.07" font-family="Times,serif" font-size="14.00">Interface</text>
</g>
<!-- legendNode5 -->
<g id="node6" class="node">
<title>legendNode5</title>
<polygon fill="none" stroke="black" points="534.98,-100.94 503.49,-118.94 440.51,-118.94 409.02,-100.94 440.51,-82.94 503.49,-82.94 534.98,-100.94"/>
<text text-anchor="middle" x="472" y="-96.66" font-family="Times,serif" font-size="12.00">Object Library</text>
</g>
<!-- legendNode2&#45;&gt;legendNode5 -->
<g id="edge5" class="edge">
<title>legendNode2&#45;&gt;legendNode5</title>
<path fill="none" stroke="black" stroke-dasharray="1,5" d="M472,-187.04C472,-170.88 472,-148.49 472,-130.73"/>
<polygon fill="black" stroke="black" points="475.5,-130.82 472,-120.82 468.5,-130.82 475.5,-130.82"/>
<text text-anchor="middle" x="491.12" y="-150.07" font-family="Times,serif" font-size="14.00">Private</text>
</g>
<!-- legendNode6 -->
<g id="node7" class="node">
<title>legendNode6</title>
<polygon fill="none" stroke="black" points="160.18,-96.93 145.89,-112.16 88,-118.94 30.11,-112.16 15.82,-96.93 55.88,-84.72 120.12,-84.72 160.18,-96.93"/>
<text text-anchor="middle" x="88" y="-96.66" font-family="Times,serif" font-size="12.00">Unknown Library</text>
</g>
<!-- legendNode3&#45;&gt;legendNode6 -->
<g id="edge6" class="edge">
<title>legendNode3&#45;&gt;legendNode6</title>
<path fill="none" stroke="black" d="M87.24,-182.83C87.39,-167 87.58,-146.63 87.73,-130.3"/>
<polygon fill="black" stroke="black" points="91.23,-130.78 87.82,-120.75 84.23,-130.71 91.23,-130.78"/>
</g>
<!-- node0 -->
<g id="node9" class="node">
<title>node0</title>
<polygon fill="none" stroke="black" points="843.17,-284.23 847.26,-284.33 851.31,-284.47 855.29,-284.67 859.2,-284.91 863.03,-285.21 866.74,-285.54 870.34,-285.93 873.8,-286.36 877.11,-286.83 880.27,-287.34 883.25,-287.89 886.06,-288.49 888.68,-289.12 891.1,-289.78 893.32,-290.49 895.33,-291.22 897.13,-291.98 898.71,-292.77 900.08,-293.59 901.22,-294.43 902.15,-295.29 902.86,-296.17 903.36,-297.07 903.64,-297.98 903.72,-298.9 903.59,-299.83 903.27,-300.77 902.75,-301.71 902.06,-302.65 901.19,-303.59 900.15,-304.53 898.95,-305.46 897.6,-306.38 896.11,-307.29 894.49,-308.19 892.75,-309.07 890.89,-309.93 888.92,-310.77 886.86,-311.59 884.71,-312.38 882.49,-313.14 880.19,-313.87 877.82,-314.57 875.4,-315.24 872.93,-315.87 870.41,-316.46 867.85,-317.02 865.26,-317.53 862.64,-318 860,-318.43 857.34,-318.81 854.66,-319.15 851.96,-319.44 849.26,-319.69 846.54,-319.88 843.82,-320.03 841.09,-320.13 838.36,-320.18 835.64,-320.18 832.91,-320.13 830.18,-320.03 827.46,-319.88 824.74,-319.69 822.04,-319.44 819.34,-319.15 816.66,-318.81 814,-318.43 811.36,-318 808.74,-317.53 806.15,-317.02 803.59,-316.46 801.07,-315.87 798.6,-315.24 796.18,-314.57 793.81,-313.87 791.51,-313.14 789.29,-312.38 787.14,-311.59 785.08,-310.77 783.11,-309.93 781.25,-309.07 779.51,-308.19 777.89,-307.29 776.4,-306.38 775.05,-305.46 773.85,-304.53 772.81,-303.59 771.94,-302.65 771.25,-301.71 770.73,-300.77 770.41,-299.83 770.28,-298.9 770.36,-297.98 770.64,-297.07 771.14,-296.17 771.85,-295.29 772.78,-294.43 773.92,-293.59 775.29,-292.77 776.87,-291.98 778.67,-291.22 780.68,-290.49 782.9,-289.78 785.32,-289.12 787.94,-288.49 790.75,-287.89 793.73,-287.34 796.89,-286.83 800.2,-286.36 803.66,-285.93 807.26,-285.54 810.97,-285.21 814.8,-284.91 818.71,-284.67 822.69,-284.47 826.74,-284.33 830.83,-284.23 834.94,-284.18 839.06,-284.18 843.17,-284.23"/>
<text text-anchor="middle" x="837" y="-297.9" font-family="Times,serif" font-size="12.00">adc_ads1115_test</text>
</g>
<!-- node1 -->
<g id="node10" class="node">
<title>node1</title>
<polygon fill="none" stroke="black" points="1286,-201.85 1286,-216.76 1270.18,-227.31 1247.82,-227.31 1232,-216.76 1232,-201.85 1247.82,-191.31 1270.18,-191.31 1286,-201.85"/>
<text text-anchor="middle" x="1259" y="-205.03" font-family="Times,serif" font-size="12.00">door</text>
</g>
<!-- node0&#45;&gt;node1 -->
<g id="edge12" class="edge">
<title>node0&#45;&gt;node1</title>
<path fill="none" stroke="black" stroke-dasharray="1,5" d="M875.24,-286.08C887.19,-281.78 900.52,-277.41 913,-274.24 1015.49,-248.25 1044.32,-257.95 1148,-237.24 1172.56,-232.34 1199.9,-225.72 1221.31,-220.27"/>
<polygon fill="black" stroke="black" points="1221.94,-223.72 1230.76,-217.84 1220.2,-216.94 1221.94,-223.72"/>
</g>
<!-- node6 -->
<g id="node15" class="node">
<title>node6</title>
<polygon fill="none" stroke="black" points="1661.42,-197.74 1661.42,-220.88 1612.56,-237.24 1543.44,-237.24 1494.58,-220.88 1494.58,-197.74 1543.44,-181.37 1612.56,-181.37 1661.42,-197.74"/>
<text text-anchor="middle" x="1578" y="-212.16" font-family="Times,serif" font-size="12.00">gtest_main</text>
<text text-anchor="middle" x="1578" y="-197.91" font-family="Times,serif" font-size="12.00">(GTest::gtest_main)</text>
</g>
<!-- node0&#45;&gt;node6 -->
<g id="edge16" class="edge">
<title>node0&#45;&gt;node6</title>
<path fill="none" stroke="black" stroke-dasharray="1,5" d="M873.09,-285.84C885.52,-281.25 899.66,-276.77 913,-274.24 1148.07,-229.76 1216.07,-301.49 1451,-256.24 1473.25,-251.96 1496.81,-244.36 1517.5,-236.56"/>
<polygon fill="black" stroke="black" points="1518.57,-239.9 1526.64,-233.03 1516.05,-233.37 1518.57,-239.9"/>
</g>
<!-- node2 -->
<g id="node11" class="node">
<title>node2</title>
<polygon fill="none" stroke="black" points="1167.92,-106.5 1061,-118.94 954.08,-106.5 994.92,-86.37 1127.08,-86.37 1167.92,-106.5"/>
<text text-anchor="middle" x="1061" y="-96.66" font-family="Times,serif" font-size="12.00">LIBGPIOD::LIBGPIOD</text>
</g>
<!-- node1&#45;&gt;node2 -->
<g id="edge9" class="edge">
<title>node1&#45;&gt;node2</title>
<path fill="none" stroke="black" d="M1238.56,-197.32C1205.31,-179.46 1139.07,-143.88 1097.57,-121.58"/>
<polygon fill="black" stroke="black" points="1099.38,-118.58 1088.92,-116.93 1096.07,-124.75 1099.38,-118.58"/>
</g>
<!-- node4 -->
<g id="node13" class="node">
<title>node4</title>
<polygon fill="none" stroke="black" points="1482.19,-106.5 1334,-118.94 1185.81,-106.5 1242.41,-86.37 1425.59,-86.37 1482.19,-106.5"/>
<text text-anchor="middle" x="1334" y="-96.66" font-family="Times,serif" font-size="12.00">LIBGPIODCXX::LIBGPIODCXX</text>
</g>
<!-- node1&#45;&gt;node4 -->
<g id="edge11" class="edge">
<title>node1&#45;&gt;node4</title>
<path fill="none" stroke="black" d="M1270.72,-191.69C1282.77,-174.59 1301.71,-147.73 1315.73,-127.84"/>
<polygon fill="black" stroke="black" points="1318.59,-129.87 1321.49,-119.68 1312.87,-125.83 1318.59,-129.87"/>
</g>
<!-- node3 -->
<g id="node12" class="node">
<title>node3</title>
<polygon fill="none" stroke="black" points="1152.24,-13.99 1134.17,-29.22 1061,-36 987.83,-29.22 969.76,-13.99 1020.39,-1.78 1101.61,-1.78 1152.24,-13.99"/>
<text text-anchor="middle" x="1061" y="-13.73" font-family="Times,serif" font-size="12.00">/usr/local/lib/libgpiod.so</text>
</g>
<!-- node2&#45;&gt;node3 -->
<g id="edge8" class="edge">
<title>node2&#45;&gt;node3</title>
<path fill="none" stroke="black" stroke-dasharray="5,2" d="M1061,-86.21C1061,-75.71 1061,-60.87 1061,-47.8"/>
<polygon fill="black" stroke="black" points="1064.5,-47.99 1061,-37.99 1057.5,-47.99 1064.5,-47.99"/>
</g>
<!-- node5 -->
<g id="node14" class="node">
<title>node5</title>
<polygon fill="none" stroke="black" points="1437.42,-13.99 1416.94,-29.22 1334,-36 1251.06,-29.22 1230.58,-13.99 1287.97,-1.78 1380.03,-1.78 1437.42,-13.99"/>
<text text-anchor="middle" x="1334" y="-13.73" font-family="Times,serif" font-size="12.00">/usr/local/lib/libgpiodcxx.so</text>
</g>
<!-- node4&#45;&gt;node5 -->
<g id="edge10" class="edge">
<title>node4&#45;&gt;node5</title>
<path fill="none" stroke="black" stroke-dasharray="5,2" d="M1334,-86.21C1334,-75.71 1334,-60.87 1334,-47.8"/>
<polygon fill="black" stroke="black" points="1337.5,-47.99 1334,-37.99 1330.5,-47.99 1337.5,-47.99"/>
</g>
<!-- node7 -->
<g id="node16" class="node">
<title>node7</title>
<polygon fill="none" stroke="black" points="1788.44,-23.56 1711,-36 1633.56,-23.56 1663.14,-3.44 1758.86,-3.44 1788.44,-23.56"/>
<text text-anchor="middle" x="1711" y="-13.73" font-family="Times,serif" font-size="12.00">Threads::Threads</text>
</g>
<!-- node6&#45;&gt;node7 -->
<g id="edge13" class="edge">
<title>node6&#45;&gt;node7</title>
<path fill="none" stroke="black" d="M1597.06,-181.18C1622.92,-144.36 1668.78,-79.1 1693.7,-43.62"/>
<polygon fill="black" stroke="black" points="1696.39,-45.89 1699.27,-35.69 1690.66,-41.86 1696.39,-45.89"/>
</g>
<!-- node8 -->
<g id="node17" class="node">
<title>node8</title>
<polygon fill="none" stroke="black" points="1832.04,-89.36 1832.04,-112.51 1796.28,-128.87 1745.72,-128.87 1709.96,-112.51 1709.96,-89.36 1745.72,-73 1796.28,-73 1832.04,-89.36"/>
<text text-anchor="middle" x="1771" y="-103.79" font-family="Times,serif" font-size="12.00">gtest</text>
<text text-anchor="middle" x="1771" y="-89.54" font-family="Times,serif" font-size="12.00">(GTest::gtest)</text>
</g>
<!-- node6&#45;&gt;node8 -->
<g id="edge15" class="edge">
<title>node6&#45;&gt;node8</title>
<path fill="none" stroke="black" d="M1621.79,-184.17C1651.9,-167.58 1691.88,-145.54 1722.88,-128.46"/>
<polygon fill="black" stroke="black" points="1724.21,-131.72 1731.28,-123.83 1720.83,-125.59 1724.21,-131.72"/>
</g>
<!-- node8&#45;&gt;node7 -->
<g id="edge14" class="edge">
<title>node8&#45;&gt;node7</title>
<path fill="none" stroke="black" d="M1750.69,-72.53C1743.72,-63.14 1735.98,-52.69 1729.19,-43.54"/>
<polygon fill="black" stroke="black" points="1732.21,-41.73 1723.44,-35.79 1726.59,-45.9 1732.21,-41.73"/>
</g>
<!-- node9 -->
<g id="node18" class="node">
<title>node9</title>
<polygon fill="none" stroke="black" points="2351.29,-284.23 2354.14,-284.33 2356.95,-284.47 2359.72,-284.67 2362.44,-284.91 2365.1,-285.21 2367.68,-285.54 2370.18,-285.93 2372.59,-286.36 2374.89,-286.83 2377.09,-287.34 2379.17,-287.89 2381.12,-288.49 2382.94,-289.12 2384.62,-289.78 2386.17,-290.49 2387.57,-291.22 2388.82,-291.98 2389.92,-292.77 2390.87,-293.59 2391.66,-294.43 2392.31,-295.29 2392.8,-296.17 2393.15,-297.07 2393.34,-297.98 2393.4,-298.9 2393.31,-299.83 2393.08,-300.77 2392.73,-301.71 2392.24,-302.65 2391.64,-303.59 2390.92,-304.53 2390.08,-305.46 2389.14,-306.38 2388.11,-307.29 2386.98,-308.19 2385.77,-309.07 2384.48,-309.93 2383.11,-310.77 2381.68,-311.59 2380.18,-312.38 2378.63,-313.14 2377.03,-313.87 2375.39,-314.57 2373.7,-315.24 2371.98,-315.87 2370.23,-316.46 2368.46,-317.02 2366.65,-317.53 2364.83,-318 2363,-318.43 2361.14,-318.81 2359.28,-319.15 2357.4,-319.44 2355.52,-319.69 2353.63,-319.88 2351.74,-320.03 2349.85,-320.13 2347.95,-320.18 2346.05,-320.18 2344.15,-320.13 2342.26,-320.03 2340.37,-319.88 2338.48,-319.69 2336.6,-319.44 2334.72,-319.15 2332.86,-318.81 2331,-318.43 2329.17,-318 2327.35,-317.53 2325.54,-317.02 2323.77,-316.46 2322.02,-315.87 2320.3,-315.24 2318.61,-314.57 2316.97,-313.87 2315.37,-313.14 2313.82,-312.38 2312.32,-311.59 2310.89,-310.77 2309.52,-309.93 2308.23,-309.07 2307.02,-308.19 2305.89,-307.29 2304.86,-306.38 2303.92,-305.46 2303.08,-304.53 2302.36,-303.59 2301.76,-302.65 2301.27,-301.71 2300.92,-300.77 2300.69,-299.83 2300.6,-298.9 2300.66,-297.98 2300.85,-297.07 2301.2,-296.17 2301.69,-295.29 2302.34,-294.43 2303.13,-293.59 2304.08,-292.77 2305.18,-291.98 2306.43,-291.22 2307.83,-290.49 2309.38,-289.78 2311.06,-289.12 2312.88,-288.49 2314.83,-287.89 2316.91,-287.34 2319.11,-286.83 2321.41,-286.36 2323.82,-285.93 2326.32,-285.54 2328.9,-285.21 2331.56,-284.91 2334.28,-284.67 2337.05,-284.47 2339.86,-284.33 2342.71,-284.23 2345.57,-284.18 2348.43,-284.18 2351.29,-284.23"/>
<text text-anchor="middle" x="2347" y="-297.9" font-family="Times,serif" font-size="12.00">assignment</text>
</g>
<!-- node10 -->
<g id="node19" class="node">
<title>node10</title>
<polygon fill="none" stroke="black" points="2442.66,-284.23 2444.42,-284.33 2446.16,-284.47 2447.88,-284.67 2449.57,-284.91 2451.21,-285.21 2452.81,-285.54 2454.36,-285.93 2455.85,-286.36 2457.28,-286.83 2458.64,-287.34 2459.93,-287.89 2461.14,-288.49 2462.26,-289.12 2463.31,-289.78 2464.26,-290.49 2465.13,-291.22 2465.91,-291.98 2466.59,-292.77 2467.18,-293.59 2467.67,-294.43 2468.07,-295.29 2468.37,-296.17 2468.59,-297.07 2468.71,-297.98 2468.74,-298.9 2468.69,-299.83 2468.55,-300.77 2468.33,-301.71 2468.03,-302.65 2467.65,-303.59 2467.21,-304.53 2466.69,-305.46 2466.11,-306.38 2465.47,-307.29 2464.77,-308.19 2464.02,-309.07 2463.22,-309.93 2462.37,-310.77 2461.48,-311.59 2460.56,-312.38 2459.6,-313.14 2458.61,-313.87 2457.59,-314.57 2456.54,-315.24 2455.48,-315.87 2454.39,-316.46 2453.29,-317.02 2452.18,-317.53 2451.05,-318 2449.91,-318.43 2448.76,-318.81 2447.61,-319.15 2446.45,-319.44 2445.28,-319.69 2444.11,-319.88 2442.94,-320.03 2441.76,-320.13 2440.59,-320.18 2439.41,-320.18 2438.24,-320.13 2437.06,-320.03 2435.89,-319.88 2434.72,-319.69 2433.55,-319.44 2432.39,-319.15 2431.24,-318.81 2430.09,-318.43 2428.95,-318 2427.82,-317.53 2426.71,-317.02 2425.61,-316.46 2424.52,-315.87 2423.46,-315.24 2422.41,-314.57 2421.39,-313.87 2420.4,-313.14 2419.44,-312.38 2418.52,-311.59 2417.63,-310.77 2416.78,-309.93 2415.98,-309.07 2415.23,-308.19 2414.53,-307.29 2413.89,-306.38 2413.31,-305.46 2412.79,-304.53 2412.35,-303.59 2411.97,-302.65 2411.67,-301.71 2411.45,-300.77 2411.31,-299.83 2411.26,-298.9 2411.29,-297.98 2411.41,-297.07 2411.63,-296.17 2411.93,-295.29 2412.33,-294.43 2412.82,-293.59 2413.41,-292.77 2414.09,-291.98 2414.87,-291.22 2415.74,-290.49 2416.69,-289.78 2417.74,-289.12 2418.86,-288.49 2420.07,-287.89 2421.36,-287.34 2422.72,-286.83 2424.15,-286.36 2425.64,-285.93 2427.19,-285.54 2428.79,-285.21 2430.43,-284.91 2432.12,-284.67 2433.84,-284.47 2435.58,-284.33 2437.34,-284.23 2439.11,-284.18 2440.89,-284.18 2442.66,-284.23"/>
<text text-anchor="middle" x="2440" y="-297.9" font-family="Times,serif" font-size="12.00">auto</text>
</g>
<!-- node11 -->
<g id="node20" class="node">
<title>node11</title>
<polygon fill="none" stroke="black" points="2517.66,-284.23 2519.42,-284.33 2521.16,-284.47 2522.88,-284.67 2524.57,-284.91 2526.21,-285.21 2527.81,-285.54 2529.36,-285.93 2530.85,-286.36 2532.28,-286.83 2533.64,-287.34 2534.93,-287.89 2536.14,-288.49 2537.26,-289.12 2538.31,-289.78 2539.26,-290.49 2540.13,-291.22 2540.91,-291.98 2541.59,-292.77 2542.18,-293.59 2542.67,-294.43 2543.07,-295.29 2543.37,-296.17 2543.59,-297.07 2543.71,-297.98 2543.74,-298.9 2543.69,-299.83 2543.55,-300.77 2543.33,-301.71 2543.03,-302.65 2542.65,-303.59 2542.21,-304.53 2541.69,-305.46 2541.11,-306.38 2540.47,-307.29 2539.77,-308.19 2539.02,-309.07 2538.22,-309.93 2537.37,-310.77 2536.48,-311.59 2535.56,-312.38 2534.6,-313.14 2533.61,-313.87 2532.59,-314.57 2531.54,-315.24 2530.48,-315.87 2529.39,-316.46 2528.29,-317.02 2527.18,-317.53 2526.05,-318 2524.91,-318.43 2523.76,-318.81 2522.61,-319.15 2521.45,-319.44 2520.28,-319.69 2519.11,-319.88 2517.94,-320.03 2516.76,-320.13 2515.59,-320.18 2514.41,-320.18 2513.24,-320.13 2512.06,-320.03 2510.89,-319.88 2509.72,-319.69 2508.55,-319.44 2507.39,-319.15 2506.24,-318.81 2505.09,-318.43 2503.95,-318 2502.82,-317.53 2501.71,-317.02 2500.61,-316.46 2499.52,-315.87 2498.46,-315.24 2497.41,-314.57 2496.39,-313.87 2495.4,-313.14 2494.44,-312.38 2493.52,-311.59 2492.63,-310.77 2491.78,-309.93 2490.98,-309.07 2490.23,-308.19 2489.53,-307.29 2488.89,-306.38 2488.31,-305.46 2487.79,-304.53 2487.35,-303.59 2486.97,-302.65 2486.67,-301.71 2486.45,-300.77 2486.31,-299.83 2486.26,-298.9 2486.29,-297.98 2486.41,-297.07 2486.63,-296.17 2486.93,-295.29 2487.33,-294.43 2487.82,-293.59 2488.41,-292.77 2489.09,-291.98 2489.87,-291.22 2490.74,-290.49 2491.69,-289.78 2492.74,-289.12 2493.86,-288.49 2495.07,-287.89 2496.36,-287.34 2497.72,-286.83 2499.15,-286.36 2500.64,-285.93 2502.19,-285.54 2503.79,-285.21 2505.43,-284.91 2507.12,-284.67 2508.84,-284.47 2510.58,-284.33 2512.34,-284.23 2514.11,-284.18 2515.89,-284.18 2517.66,-284.23"/>
<text text-anchor="middle" x="2515" y="-297.9" font-family="Times,serif" font-size="12.00">blink</text>
</g>
<!-- node12 -->
<g id="node21" class="node">
<title>node12</title>
<polygon fill="none" stroke="black" points="704.81,-284.23 708,-284.33 711.15,-284.47 714.25,-284.67 717.3,-284.91 720.28,-285.21 723.17,-285.54 725.97,-285.93 728.67,-286.36 731.25,-286.83 733.71,-287.34 736.04,-287.89 738.23,-288.49 740.27,-289.12 742.15,-289.78 743.88,-290.49 745.45,-291.22 746.85,-291.98 748.09,-292.77 749.15,-293.59 750.04,-294.43 750.76,-295.29 751.32,-296.17 751.7,-297.07 751.93,-297.98 751.98,-298.9 751.89,-299.83 751.63,-300.77 751.24,-301.71 750.69,-302.65 750.01,-303.59 749.2,-304.53 748.27,-305.46 747.22,-306.38 746.06,-307.29 744.8,-308.19 743.44,-309.07 741.99,-309.93 740.46,-310.77 738.85,-311.59 737.18,-312.38 735.44,-313.14 733.65,-313.87 731.81,-314.57 729.92,-315.24 727.99,-315.87 726.03,-316.46 724.04,-317.02 722.02,-317.53 719.98,-318 717.92,-318.43 715.85,-318.81 713.76,-319.15 711.66,-319.44 709.55,-319.69 707.43,-319.88 705.31,-320.03 703.19,-320.13 701.06,-320.18 698.94,-320.18 696.81,-320.13 694.69,-320.03 692.57,-319.88 690.45,-319.69 688.34,-319.44 686.24,-319.15 684.15,-318.81 682.08,-318.43 680.02,-318 677.98,-317.53 675.96,-317.02 673.97,-316.46 672.01,-315.87 670.08,-315.24 668.19,-314.57 666.35,-313.87 664.56,-313.14 662.82,-312.38 661.15,-311.59 659.54,-310.77 658.01,-309.93 656.56,-309.07 655.2,-308.19 653.94,-307.29 652.78,-306.38 651.73,-305.46 650.8,-304.53 649.99,-303.59 649.31,-302.65 648.76,-301.71 648.37,-300.77 648.11,-299.83 648.02,-298.9 648.07,-297.98 648.3,-297.07 648.68,-296.17 649.24,-295.29 649.96,-294.43 650.85,-293.59 651.91,-292.77 653.15,-291.98 654.55,-291.22 656.12,-290.49 657.85,-289.78 659.73,-289.12 661.77,-288.49 663.96,-287.89 666.29,-287.34 668.75,-286.83 671.33,-286.36 674.03,-285.93 676.83,-285.54 679.72,-285.21 682.7,-284.91 685.75,-284.67 688.85,-284.47 692,-284.33 695.19,-284.23 698.39,-284.18 701.61,-284.18 704.81,-284.23"/>
<text text-anchor="middle" x="700" y="-297.9" font-family="Times,serif" font-size="12.00">bmp280_test</text>
</g>
<!-- node12&#45;&gt;node1 -->
<g id="edge17" class="edge">
<title>node12&#45;&gt;node1</title>
<path fill="none" stroke="black" stroke-dasharray="1,5" d="M729.1,-286.06C738.98,-281.54 750.25,-277.05 761,-274.24 928.17,-230.56 977.61,-265.91 1148,-237.24 1172.86,-233.06 1200.41,-226.39 1221.84,-220.73"/>
<polygon fill="black" stroke="black" points="1222.54,-224.17 1231.29,-218.19 1220.73,-217.41 1222.54,-224.17"/>
</g>
<!-- node12&#45;&gt;node6 -->
<g id="edge18" class="edge">
<title>node12&#45;&gt;node6</title>
<path fill="none" stroke="black" stroke-dasharray="1,5" d="M728.75,-286.04C738.7,-281.46 750.1,-276.94 761,-274.24 876.47,-245.68 1176.45,-246.99 1295,-237.24 1357.7,-232.09 1428.12,-225.39 1483.03,-219.96"/>
<polygon fill="black" stroke="black" points="1483.04,-223.48 1492.65,-219.01 1482.35,-216.51 1483.04,-223.48"/>
</g>
<!-- node13 -->
<g id="node22" class="node">
<title>node13</title>
<polygon fill="none" stroke="black" points="1867.87,-284.23 1870.43,-284.33 1872.97,-284.47 1875.47,-284.67 1877.92,-284.91 1880.32,-285.21 1882.64,-285.54 1884.9,-285.93 1887.07,-286.36 1889.15,-286.83 1891.12,-287.34 1893,-287.89 1894.76,-288.49 1896.4,-289.12 1897.92,-289.78 1899.31,-290.49 1900.57,-291.22 1901.7,-291.98 1902.69,-292.77 1903.54,-293.59 1904.26,-294.43 1904.84,-295.29 1905.29,-296.17 1905.6,-297.07 1905.78,-297.98 1905.82,-298.9 1905.75,-299.83 1905.54,-300.77 1905.22,-301.71 1904.79,-302.65 1904.24,-303.59 1903.59,-304.53 1902.84,-305.46 1901.99,-306.38 1901.06,-307.29 1900.04,-308.19 1898.95,-309.07 1897.78,-309.93 1896.55,-310.77 1895.26,-311.59 1893.91,-312.38 1892.52,-313.14 1891.07,-313.87 1889.59,-314.57 1888.07,-315.24 1886.52,-315.87 1884.94,-316.46 1883.34,-317.02 1881.72,-317.53 1880.08,-318 1878.42,-318.43 1876.75,-318.81 1875.07,-319.15 1873.38,-319.44 1871.68,-319.69 1869.98,-319.88 1868.27,-320.03 1866.57,-320.13 1864.86,-320.18 1863.14,-320.18 1861.43,-320.13 1859.73,-320.03 1858.02,-319.88 1856.32,-319.69 1854.62,-319.44 1852.93,-319.15 1851.25,-318.81 1849.58,-318.43 1847.92,-318 1846.28,-317.53 1844.66,-317.02 1843.06,-316.46 1841.48,-315.87 1839.93,-315.24 1838.41,-314.57 1836.93,-313.87 1835.48,-313.14 1834.09,-312.38 1832.74,-311.59 1831.45,-310.77 1830.22,-309.93 1829.05,-309.07 1827.96,-308.19 1826.94,-307.29 1826.01,-306.38 1825.16,-305.46 1824.41,-304.53 1823.76,-303.59 1823.21,-302.65 1822.78,-301.71 1822.46,-300.77 1822.25,-299.83 1822.18,-298.9 1822.22,-297.98 1822.4,-297.07 1822.71,-296.17 1823.16,-295.29 1823.74,-294.43 1824.46,-293.59 1825.31,-292.77 1826.3,-291.98 1827.43,-291.22 1828.69,-290.49 1830.08,-289.78 1831.6,-289.12 1833.24,-288.49 1835,-287.89 1836.88,-287.34 1838.85,-286.83 1840.93,-286.36 1843.1,-285.93 1845.36,-285.54 1847.68,-285.21 1850.08,-284.91 1852.53,-284.67 1855.03,-284.47 1857.57,-284.33 1860.13,-284.23 1862.71,-284.18 1865.29,-284.18 1867.87,-284.23"/>
<text text-anchor="middle" x="1864" y="-297.9" font-family="Times,serif" font-size="12.00">door&#45;tests</text>
</g>
<!-- node13&#45;&gt;node1 -->
<g id="edge19" class="edge">
<title>node13&#45;&gt;node1</title>
<path fill="none" stroke="black" stroke-dasharray="1,5" d="M1839.9,-286.09C1831.65,-281.57 1822.19,-277.08 1813,-274.24 1743.12,-252.68 1558.64,-245.66 1486,-237.24 1419.78,-229.57 1342.72,-220.37 1297.56,-214.95"/>
<polygon fill="black" stroke="black" points="1298.1,-211.49 1287.75,-213.77 1297.26,-218.44 1298.1,-211.49"/>
</g>
<!-- node13&#45;&gt;node6 -->
<g id="edge20" class="edge">
<title>node13&#45;&gt;node6</title>
<path fill="none" stroke="black" stroke-dasharray="1,5" d="M1838.84,-286.48C1830.76,-282.15 1821.66,-277.66 1813,-274.24 1784.52,-263.01 1713.03,-244.02 1656.33,-229.65"/>
<polygon fill="black" stroke="black" points="1657.22,-226.26 1646.67,-227.21 1655.51,-233.05 1657.22,-226.26"/>
</g>
<!-- node14 -->
<g id="node23" class="node">
<title>node14</title>
<polygon fill="none" stroke="black" points="2592.66,-284.23 2594.42,-284.33 2596.16,-284.47 2597.88,-284.67 2599.57,-284.91 2601.21,-285.21 2602.81,-285.54 2604.36,-285.93 2605.85,-286.36 2607.28,-286.83 2608.64,-287.34 2609.93,-287.89 2611.14,-288.49 2612.26,-289.12 2613.31,-289.78 2614.26,-290.49 2615.13,-291.22 2615.91,-291.98 2616.59,-292.77 2617.18,-293.59 2617.67,-294.43 2618.07,-295.29 2618.37,-296.17 2618.59,-297.07 2618.71,-297.98 2618.74,-298.9 2618.69,-299.83 2618.55,-300.77 2618.33,-301.71 2618.03,-302.65 2617.65,-303.59 2617.21,-304.53 2616.69,-305.46 2616.11,-306.38 2615.47,-307.29 2614.77,-308.19 2614.02,-309.07 2613.22,-309.93 2612.37,-310.77 2611.48,-311.59 2610.56,-312.38 2609.6,-313.14 2608.61,-313.87 2607.59,-314.57 2606.54,-315.24 2605.48,-315.87 2604.39,-316.46 2603.29,-317.02 2602.18,-317.53 2601.05,-318 2599.91,-318.43 2598.76,-318.81 2597.61,-319.15 2596.45,-319.44 2595.28,-319.69 2594.11,-319.88 2592.94,-320.03 2591.76,-320.13 2590.59,-320.18 2589.41,-320.18 2588.24,-320.13 2587.06,-320.03 2585.89,-319.88 2584.72,-319.69 2583.55,-319.44 2582.39,-319.15 2581.24,-318.81 2580.09,-318.43 2578.95,-318 2577.82,-317.53 2576.71,-317.02 2575.61,-316.46 2574.52,-315.87 2573.46,-315.24 2572.41,-314.57 2571.39,-313.87 2570.4,-313.14 2569.44,-312.38 2568.52,-311.59 2567.63,-310.77 2566.78,-309.93 2565.98,-309.07 2565.23,-308.19 2564.53,-307.29 2563.89,-306.38 2563.31,-305.46 2562.79,-304.53 2562.35,-303.59 2561.97,-302.65 2561.67,-301.71 2561.45,-300.77 2561.31,-299.83 2561.26,-298.9 2561.29,-297.98 2561.41,-297.07 2561.63,-296.17 2561.93,-295.29 2562.33,-294.43 2562.82,-293.59 2563.41,-292.77 2564.09,-291.98 2564.87,-291.22 2565.74,-290.49 2566.69,-289.78 2567.74,-289.12 2568.86,-288.49 2570.07,-287.89 2571.36,-287.34 2572.72,-286.83 2574.15,-286.36 2575.64,-285.93 2577.19,-285.54 2578.79,-285.21 2580.43,-284.91 2582.12,-284.67 2583.84,-284.47 2585.58,-284.33 2587.34,-284.23 2589.11,-284.18 2590.89,-284.18 2592.66,-284.23"/>
<text text-anchor="middle" x="2590" y="-297.9" font-family="Times,serif" font-size="12.00">dtor</text>
</g>
<!-- node15 -->
<g id="node24" class="node">
<title>node15</title>
<polygon fill="none" stroke="black" points="2699.33,-284.23 2702.85,-284.33 2706.35,-284.47 2709.79,-284.67 2713.16,-284.91 2716.46,-285.21 2719.66,-285.54 2722.77,-285.93 2725.75,-286.36 2728.61,-286.83 2731.34,-287.34 2733.91,-287.89 2736.34,-288.49 2738.6,-289.12 2740.69,-289.78 2742.6,-290.49 2744.34,-291.22 2745.89,-291.98 2747.25,-292.77 2748.43,-293.59 2749.42,-294.43 2750.22,-295.29 2750.83,-296.17 2751.26,-297.07 2751.51,-297.98 2751.57,-298.9 2751.46,-299.83 2751.19,-300.77 2750.74,-301.71 2750.14,-302.65 2749.39,-303.59 2748.49,-304.53 2747.46,-305.46 2746.3,-306.38 2745.01,-307.29 2743.61,-308.19 2742.11,-309.07 2740.5,-309.93 2738.81,-310.77 2737.03,-311.59 2735.17,-312.38 2733.25,-313.14 2731.27,-313.87 2729.23,-314.57 2727.14,-315.24 2725,-315.87 2722.83,-316.46 2720.62,-317.02 2718.39,-317.53 2716.13,-318 2713.85,-318.43 2711.55,-318.81 2709.24,-319.15 2706.91,-319.44 2704.58,-319.69 2702.23,-319.88 2699.88,-320.03 2697.53,-320.13 2695.18,-320.18 2692.82,-320.18 2690.47,-320.13 2688.12,-320.03 2685.77,-319.88 2683.42,-319.69 2681.09,-319.44 2678.76,-319.15 2676.45,-318.81 2674.15,-318.43 2671.87,-318 2669.61,-317.53 2667.38,-317.02 2665.17,-316.46 2663,-315.87 2660.86,-315.24 2658.77,-314.57 2656.73,-313.87 2654.75,-313.14 2652.83,-312.38 2650.97,-311.59 2649.19,-310.77 2647.5,-309.93 2645.89,-309.07 2644.39,-308.19 2642.99,-307.29 2641.7,-306.38 2640.54,-305.46 2639.51,-304.53 2638.61,-303.59 2637.86,-302.65 2637.26,-301.71 2636.81,-300.77 2636.54,-299.83 2636.43,-298.9 2636.49,-297.98 2636.74,-297.07 2637.17,-296.17 2637.78,-295.29 2638.58,-294.43 2639.57,-293.59 2640.75,-292.77 2642.11,-291.98 2643.66,-291.22 2645.4,-290.49 2647.31,-289.78 2649.4,-289.12 2651.66,-288.49 2654.09,-287.89 2656.66,-287.34 2659.39,-286.83 2662.25,-286.36 2665.23,-285.93 2668.34,-285.54 2671.54,-285.21 2674.84,-284.91 2678.21,-284.67 2681.65,-284.47 2685.15,-284.33 2688.67,-284.23 2692.22,-284.18 2695.78,-284.18 2699.33,-284.23"/>
<text text-anchor="middle" x="2694" y="-297.9" font-family="Times,serif" font-size="12.00">enum&#45;problem</text>
</g>
<!-- node16 -->
<g id="node25" class="node">
<title>node16</title>
<polygon fill="none" stroke="black" points="2831.23,-284.23 2834.7,-284.33 2838.13,-284.47 2841.51,-284.67 2844.82,-284.91 2848.06,-285.21 2851.21,-285.54 2854.26,-285.93 2857.19,-286.36 2860,-286.83 2862.68,-287.34 2865.21,-287.89 2867.59,-288.49 2869.81,-289.12 2871.86,-289.78 2873.74,-290.49 2875.45,-291.22 2876.97,-291.98 2878.31,-292.77 2879.47,-293.59 2880.44,-294.43 2881.23,-295.29 2881.83,-296.17 2882.25,-297.07 2882.49,-297.98 2882.56,-298.9 2882.45,-299.83 2882.18,-300.77 2881.74,-301.71 2881.15,-302.65 2880.41,-303.59 2879.53,-304.53 2878.52,-305.46 2877.37,-306.38 2876.11,-307.29 2874.74,-308.19 2873.26,-309.07 2871.68,-309.93 2870.02,-310.77 2868.27,-311.59 2866.45,-312.38 2864.56,-313.14 2862.61,-313.87 2860.6,-314.57 2858.55,-315.24 2856.45,-315.87 2854.32,-316.46 2852.15,-317.02 2849.96,-317.53 2847.74,-318 2845.5,-318.43 2843.24,-318.81 2840.97,-319.15 2838.68,-319.44 2836.39,-319.69 2834.09,-319.88 2831.78,-320.03 2829.47,-320.13 2827.16,-320.18 2824.84,-320.18 2822.53,-320.13 2820.22,-320.03 2817.91,-319.88 2815.61,-319.69 2813.32,-319.44 2811.03,-319.15 2808.76,-318.81 2806.5,-318.43 2804.26,-318 2802.04,-317.53 2799.85,-317.02 2797.68,-316.46 2795.55,-315.87 2793.45,-315.24 2791.4,-314.57 2789.39,-313.87 2787.44,-313.14 2785.55,-312.38 2783.73,-311.59 2781.98,-310.77 2780.32,-309.93 2778.74,-309.07 2777.26,-308.19 2775.89,-307.29 2774.63,-306.38 2773.48,-305.46 2772.47,-304.53 2771.59,-303.59 2770.85,-302.65 2770.26,-301.71 2769.82,-300.77 2769.55,-299.83 2769.44,-298.9 2769.51,-297.98 2769.75,-297.07 2770.17,-296.17 2770.77,-295.29 2771.56,-294.43 2772.53,-293.59 2773.69,-292.77 2775.03,-291.98 2776.55,-291.22 2778.26,-290.49 2780.14,-289.78 2782.19,-289.12 2784.41,-288.49 2786.79,-287.89 2789.32,-287.34 2792,-286.83 2794.81,-286.36 2797.74,-285.93 2800.79,-285.54 2803.94,-285.21 2807.18,-284.91 2810.49,-284.67 2813.87,-284.47 2817.3,-284.33 2820.77,-284.23 2824.25,-284.18 2827.75,-284.18 2831.23,-284.23"/>
<text text-anchor="middle" x="2826" y="-297.9" font-family="Times,serif" font-size="12.00">enum&#45;solution</text>
</g>
<!-- node17 -->
<g id="node26" class="node">
<title>node17</title>
<polygon fill="none" stroke="black" points="2931.66,-284.23 2933.42,-284.33 2935.16,-284.47 2936.88,-284.67 2938.57,-284.91 2940.21,-285.21 2941.81,-285.54 2943.36,-285.93 2944.85,-286.36 2946.28,-286.83 2947.64,-287.34 2948.93,-287.89 2950.14,-288.49 2951.26,-289.12 2952.31,-289.78 2953.26,-290.49 2954.13,-291.22 2954.91,-291.98 2955.59,-292.77 2956.18,-293.59 2956.67,-294.43 2957.07,-295.29 2957.37,-296.17 2957.59,-297.07 2957.71,-297.98 2957.74,-298.9 2957.69,-299.83 2957.55,-300.77 2957.33,-301.71 2957.03,-302.65 2956.65,-303.59 2956.21,-304.53 2955.69,-305.46 2955.11,-306.38 2954.47,-307.29 2953.77,-308.19 2953.02,-309.07 2952.22,-309.93 2951.37,-310.77 2950.48,-311.59 2949.56,-312.38 2948.6,-313.14 2947.61,-313.87 2946.59,-314.57 2945.54,-315.24 2944.48,-315.87 2943.39,-316.46 2942.29,-317.02 2941.18,-317.53 2940.05,-318 2938.91,-318.43 2937.76,-318.81 2936.61,-319.15 2935.45,-319.44 2934.28,-319.69 2933.11,-319.88 2931.94,-320.03 2930.76,-320.13 2929.59,-320.18 2928.41,-320.18 2927.24,-320.13 2926.06,-320.03 2924.89,-319.88 2923.72,-319.69 2922.55,-319.44 2921.39,-319.15 2920.24,-318.81 2919.09,-318.43 2917.95,-318 2916.82,-317.53 2915.71,-317.02 2914.61,-316.46 2913.52,-315.87 2912.46,-315.24 2911.41,-314.57 2910.39,-313.87 2909.4,-313.14 2908.44,-312.38 2907.52,-311.59 2906.63,-310.77 2905.78,-309.93 2904.98,-309.07 2904.23,-308.19 2903.53,-307.29 2902.89,-306.38 2902.31,-305.46 2901.79,-304.53 2901.35,-303.59 2900.97,-302.65 2900.67,-301.71 2900.45,-300.77 2900.31,-299.83 2900.26,-298.9 2900.29,-297.98 2900.41,-297.07 2900.63,-296.17 2900.93,-295.29 2901.33,-294.43 2901.82,-293.59 2902.41,-292.77 2903.09,-291.98 2903.87,-291.22 2904.74,-290.49 2905.69,-289.78 2906.74,-289.12 2907.86,-288.49 2909.07,-287.89 2910.36,-287.34 2911.72,-286.83 2913.15,-286.36 2914.64,-285.93 2916.19,-285.54 2917.79,-285.21 2919.43,-284.91 2921.12,-284.67 2922.84,-284.47 2924.58,-284.33 2926.34,-284.23 2928.11,-284.18 2929.89,-284.18 2931.66,-284.23"/>
<text text-anchor="middle" x="2929" y="-297.9" font-family="Times,serif" font-size="12.00">event</text>
</g>
<!-- node18 -->
<g id="node27" class="node">
<title>node18</title>
<polygon fill="none" stroke="black" points="1840.07,-197.74 1840.07,-220.88 1799.61,-237.24 1742.39,-237.24 1701.93,-220.88 1701.93,-197.74 1742.39,-181.37 1799.61,-181.37 1840.07,-197.74"/>
<text text-anchor="middle" x="1771" y="-212.16" font-family="Times,serif" font-size="12.00">gmock</text>
<text text-anchor="middle" x="1771" y="-197.91" font-family="Times,serif" font-size="12.00">(GTest::gmock)</text>
</g>
<!-- node18&#45;&gt;node7 -->
<g id="edge21" class="edge">
<title>node18&#45;&gt;node7</title>
<path fill="none" stroke="black" d="M1739.32,-182.34C1724.66,-168.25 1708.79,-149.51 1701,-128.87 1690.86,-102.02 1696.02,-68.95 1702.04,-46.15"/>
<polygon fill="black" stroke="black" points="1705.36,-47.28 1704.77,-36.7 1698.63,-45.33 1705.36,-47.28"/>
</g>
<!-- node18&#45;&gt;node8 -->
<g id="edge22" class="edge">
<title>node18&#45;&gt;node8</title>
<path fill="none" stroke="black" d="M1771,-180.91C1771,-168.63 1771,-153.93 1771,-140.55"/>
<polygon fill="black" stroke="black" points="1774.5,-140.75 1771,-130.75 1767.5,-140.75 1774.5,-140.75"/>
</g>
<!-- node19 -->
<g id="node28" class="node">
<title>node19</title>
<polygon fill="none" stroke="black" points="2282.46,-290.61 2282.46,-313.75 2228.88,-330.12 2153.12,-330.12 2099.54,-313.75 2099.54,-290.61 2153.12,-274.24 2228.88,-274.24 2282.46,-290.61"/>
<text text-anchor="middle" x="2191" y="-305.03" font-family="Times,serif" font-size="12.00">gmock_main</text>
<text text-anchor="middle" x="2191" y="-290.78" font-family="Times,serif" font-size="12.00">(GTest::gmock_main)</text>
</g>
<!-- node19&#45;&gt;node7 -->
<g id="edge23" class="edge">
<title>node19&#45;&gt;node7</title>
<path fill="none" stroke="black" d="M2154.07,-273.82C2091.71,-228.39 1960.63,-136.15 1841,-73 1813.3,-58.37 1780.74,-44.86 1755.14,-35"/>
<polygon fill="black" stroke="black" points="1756.63,-31.83 1746.04,-31.55 1754.15,-38.37 1756.63,-31.83"/>
</g>
<!-- node19&#45;&gt;node18 -->
<g id="edge24" class="edge">
<title>node19&#45;&gt;node18</title>
<path fill="none" stroke="black" d="M2126.57,-281.97C2114.82,-279 2102.6,-276.26 2091,-274.24 1992.59,-257.18 1963.44,-282.23 1867,-256.24 1851.35,-252.03 1835.16,-245.31 1820.63,-238.29"/>
<polygon fill="black" stroke="black" points="1822.24,-235.19 1811.73,-233.85 1819.11,-241.45 1822.24,-235.19"/>
</g>
<!-- node20 -->
<g id="node29" class="node">
<title>node20</title>
<polygon fill="none" stroke="black" points="1068.21,-191.36 1072.98,-191.46 1077.7,-191.6 1082.36,-191.8 1086.92,-192.04 1091.38,-192.33 1095.72,-192.67 1099.92,-193.06 1103.96,-193.48 1107.83,-193.95 1111.52,-194.47 1115,-195.02 1118.28,-195.62 1121.34,-196.25 1124.16,-196.91 1126.75,-197.61 1129.1,-198.35 1131.2,-199.11 1133.05,-199.9 1134.64,-200.72 1135.98,-201.56 1137.06,-202.42 1137.89,-203.3 1138.47,-204.19 1138.8,-205.1 1138.89,-206.03 1138.75,-206.96 1138.37,-207.89 1137.77,-208.84 1136.96,-209.78 1135.94,-210.72 1134.73,-211.66 1133.33,-212.59 1131.75,-213.51 1130.02,-214.42 1128.12,-215.32 1126.09,-216.2 1123.91,-217.06 1121.62,-217.9 1119.22,-218.72 1116.71,-219.51 1114.11,-220.27 1111.42,-221 1108.66,-221.7 1105.83,-222.37 1102.94,-223 1100,-223.59 1097.02,-224.15 1094,-224.66 1090.94,-225.13 1087.85,-225.56 1084.74,-225.94 1081.61,-226.28 1078.47,-226.57 1075.31,-226.82 1072.14,-227.01 1068.96,-227.16 1065.78,-227.26 1062.59,-227.31 1059.41,-227.31 1056.22,-227.26 1053.04,-227.16 1049.86,-227.01 1046.69,-226.82 1043.53,-226.57 1040.39,-226.28 1037.26,-225.94 1034.15,-225.56 1031.06,-225.13 1028,-224.66 1024.98,-224.15 1022,-223.59 1019.06,-223 1016.17,-222.37 1013.34,-221.7 1010.58,-221 1007.89,-220.27 1005.29,-219.51 1002.78,-218.72 1000.38,-217.9 998.09,-217.06 995.91,-216.2 993.88,-215.32 991.98,-214.42 990.25,-213.51 988.67,-212.59 987.27,-211.66 986.06,-210.72 985.04,-209.78 984.23,-208.84 983.63,-207.89 983.25,-206.96 983.11,-206.03 983.2,-205.1 983.53,-204.19 984.11,-203.3 984.94,-202.42 986.02,-201.56 987.36,-200.72 988.95,-199.9 990.8,-199.11 992.9,-198.35 995.25,-197.61 997.84,-196.91 1000.66,-196.25 1003.72,-195.62 1007,-195.02 1010.48,-194.47 1014.17,-193.95 1018.04,-193.48 1022.08,-193.06 1026.28,-192.67 1030.62,-192.33 1035.08,-192.04 1039.64,-191.8 1044.3,-191.6 1049.02,-191.46 1053.79,-191.36 1058.59,-191.31 1063.41,-191.31 1068.21,-191.36"/>
<text text-anchor="middle" x="1061" y="-205.03" font-family="Times,serif" font-size="12.00">gpio&#45;read&#45;value&#45;loop</text>
</g>
<!-- node20&#45;&gt;node2 -->
<g id="edge25" class="edge">
<title>node20&#45;&gt;node2</title>
<path fill="none" stroke="black" stroke-dasharray="1,5" d="M1061,-191.22C1061,-174.95 1061,-150.16 1061,-130.83"/>
<polygon fill="black" stroke="black" points="1064.5,-130.85 1061,-120.85 1057.5,-130.85 1064.5,-130.85"/>
</g>
<!-- node21 -->
<g id="node30" class="node">
<title>node21</title>
<polygon fill="none" stroke="black" points="1218.84,-284.23 1225.36,-284.33 1231.8,-284.47 1238.16,-284.67 1244.39,-284.91 1250.48,-285.21 1256.4,-285.54 1262.13,-285.93 1267.65,-286.36 1272.93,-286.83 1277.96,-287.34 1282.72,-287.89 1287.2,-288.49 1291.37,-289.12 1295.23,-289.78 1298.77,-290.49 1301.97,-291.22 1304.84,-291.98 1307.36,-292.77 1309.54,-293.59 1311.37,-294.43 1312.84,-295.29 1313.98,-296.17 1314.77,-297.07 1315.22,-297.98 1315.34,-298.9 1315.14,-299.83 1314.62,-300.77 1313.81,-301.71 1312.7,-302.65 1311.31,-303.59 1309.65,-304.53 1307.74,-305.46 1305.6,-306.38 1303.22,-307.29 1300.64,-308.19 1297.86,-309.07 1294.89,-309.93 1291.76,-310.77 1288.48,-311.59 1285.05,-312.38 1281.5,-313.14 1277.83,-313.87 1274.06,-314.57 1270.2,-315.24 1266.26,-315.87 1262.25,-316.46 1258.17,-317.02 1254.05,-317.53 1249.87,-318 1245.66,-318.43 1241.42,-318.81 1237.14,-319.15 1232.85,-319.44 1228.53,-319.69 1224.21,-319.88 1219.87,-320.03 1215.52,-320.13 1211.18,-320.18 1206.82,-320.18 1202.48,-320.13 1198.13,-320.03 1193.79,-319.88 1189.47,-319.69 1185.15,-319.44 1180.86,-319.15 1176.58,-318.81 1172.34,-318.43 1168.13,-318 1163.95,-317.53 1159.83,-317.02 1155.75,-316.46 1151.74,-315.87 1147.8,-315.24 1143.94,-314.57 1140.17,-313.87 1136.5,-313.14 1132.95,-312.38 1129.52,-311.59 1126.24,-310.77 1123.11,-309.93 1120.14,-309.07 1117.36,-308.19 1114.78,-307.29 1112.4,-306.38 1110.26,-305.46 1108.35,-304.53 1106.69,-303.59 1105.3,-302.65 1104.19,-301.71 1103.38,-300.77 1102.86,-299.83 1102.66,-298.9 1102.78,-297.98 1103.23,-297.07 1104.02,-296.17 1105.16,-295.29 1106.63,-294.43 1108.46,-293.59 1110.64,-292.77 1113.16,-291.98 1116.03,-291.22 1119.23,-290.49 1122.77,-289.78 1126.63,-289.12 1130.8,-288.49 1135.28,-287.89 1140.04,-287.34 1145.07,-286.83 1150.35,-286.36 1155.87,-285.93 1161.6,-285.54 1167.52,-285.21 1173.61,-284.91 1179.84,-284.67 1186.2,-284.47 1192.64,-284.33 1199.16,-284.23 1205.72,-284.18 1212.28,-284.18 1218.84,-284.23"/>
<text text-anchor="middle" x="1209" y="-297.9" font-family="Times,serif" font-size="12.00">input&#45;output&#45;switch&#45;gpio&#45;tests</text>
</g>
<!-- node21&#45;&gt;node1 -->
<g id="edge26" class="edge">
<title>node21&#45;&gt;node1</title>
<path fill="none" stroke="black" stroke-dasharray="1,5" d="M1218.4,-284.09C1225.62,-270.97 1235.73,-252.61 1244.05,-237.48"/>
<polygon fill="black" stroke="black" points="1246.98,-239.41 1248.74,-228.96 1240.85,-236.03 1246.98,-239.41"/>
</g>
<!-- node21&#45;&gt;node6 -->
<g id="edge27" class="edge">
<title>node21&#45;&gt;node6</title>
<path fill="none" stroke="black" stroke-dasharray="1,5" d="M1268.01,-285.89C1286.19,-281.61 1306.33,-277.3 1325,-274.24 1406.96,-260.82 1432.95,-284.62 1511,-256.24 1519.39,-253.19 1527.72,-248.85 1535.52,-244.03"/>
<polygon fill="black" stroke="black" points="1537.38,-246.99 1543.8,-238.56 1533.53,-241.15 1537.38,-246.99"/>
</g>
<!-- node22 -->
<g id="node31" class="node">
<title>node22</title>
<polygon fill="none" stroke="black" points="1585.72,-284.23 1590.84,-284.33 1595.9,-284.47 1600.89,-284.67 1605.78,-284.91 1610.56,-285.21 1615.21,-285.54 1619.71,-285.93 1624.04,-286.36 1628.19,-286.83 1632.14,-287.34 1635.88,-287.89 1639.39,-288.49 1642.66,-289.12 1645.69,-289.78 1648.47,-290.49 1650.99,-291.22 1653.24,-291.98 1655.22,-292.77 1656.93,-293.59 1658.36,-294.43 1659.52,-295.29 1660.41,-296.17 1661.03,-297.07 1661.38,-297.98 1661.48,-298.9 1661.32,-299.83 1660.92,-300.77 1660.28,-301.71 1659.41,-302.65 1658.32,-303.59 1657.02,-304.53 1655.52,-305.46 1653.83,-306.38 1651.97,-307.29 1649.94,-308.19 1647.75,-309.07 1645.43,-309.93 1642.97,-310.77 1640.39,-311.59 1637.7,-312.38 1634.91,-313.14 1632.04,-313.87 1629.08,-314.57 1626.05,-315.24 1622.95,-315.87 1619.8,-316.46 1616.6,-317.02 1613.36,-317.53 1610.09,-318 1606.78,-318.43 1603.45,-318.81 1600.09,-319.15 1596.72,-319.44 1593.33,-319.69 1589.94,-319.88 1586.53,-320.03 1583.12,-320.13 1579.71,-320.18 1576.29,-320.18 1572.88,-320.13 1569.47,-320.03 1566.06,-319.88 1562.67,-319.69 1559.28,-319.44 1555.91,-319.15 1552.55,-318.81 1549.22,-318.43 1545.91,-318 1542.64,-317.53 1539.4,-317.02 1536.2,-316.46 1533.05,-315.87 1529.95,-315.24 1526.92,-314.57 1523.96,-313.87 1521.09,-313.14 1518.3,-312.38 1515.61,-311.59 1513.03,-310.77 1510.57,-309.93 1508.25,-309.07 1506.06,-308.19 1504.03,-307.29 1502.17,-306.38 1500.48,-305.46 1498.98,-304.53 1497.68,-303.59 1496.59,-302.65 1495.72,-301.71 1495.08,-300.77 1494.68,-299.83 1494.52,-298.9 1494.62,-297.98 1494.97,-297.07 1495.59,-296.17 1496.48,-295.29 1497.64,-294.43 1499.07,-293.59 1500.78,-292.77 1502.76,-291.98 1505.01,-291.22 1507.53,-290.49 1510.31,-289.78 1513.34,-289.12 1516.61,-288.49 1520.12,-287.89 1523.86,-287.34 1527.81,-286.83 1531.96,-286.36 1536.29,-285.93 1540.79,-285.54 1545.44,-285.21 1550.22,-284.91 1555.11,-284.67 1560.1,-284.47 1565.16,-284.33 1570.28,-284.23 1575.42,-284.18 1580.58,-284.18 1585.72,-284.23"/>
<text text-anchor="middle" x="1578" y="-297.9" font-family="Times,serif" font-size="12.00">input&#45;switch&#45;gpio&#45;tests</text>
</g>
<!-- node22&#45;&gt;node1 -->
<g id="edge28" class="edge">
<title>node22&#45;&gt;node1</title>
<path fill="none" stroke="black" stroke-dasharray="1,5" d="M1529.45,-286.32C1515.19,-282.17 1499.53,-277.83 1485,-274.24 1446.24,-264.68 1435.56,-266.57 1397,-256.24 1361.2,-246.66 1321.09,-232.97 1293.37,-223.02"/>
<polygon fill="black" stroke="black" points="1294.69,-219.78 1284.09,-219.66 1292.31,-226.36 1294.69,-219.78"/>
</g>
<!-- node22&#45;&gt;node6 -->
<g id="edge29" class="edge">
<title>node22&#45;&gt;node6</title>
<path fill="none" stroke="black" stroke-dasharray="1,5" d="M1578,-284.09C1578,-274.19 1578,-261.31 1578,-249.08"/>
<polygon fill="black" stroke="black" points="1581.5,-249.2 1578,-239.2 1574.5,-249.2 1581.5,-249.2"/>
</g>
<!-- node23 -->
<g id="node32" class="node">
<title>node23</title>
<polygon fill="none" stroke="black" points="3020.82,-284.23 3023.35,-284.33 3025.86,-284.47 3028.33,-284.67 3030.75,-284.91 3033.12,-285.21 3035.42,-285.54 3037.64,-285.93 3039.79,-286.36 3041.84,-286.83 3043.79,-287.34 3045.64,-287.89 3047.38,-288.49 3049,-289.12 3050.5,-289.78 3051.88,-290.49 3053.12,-291.22 3054.24,-291.98 3055.22,-292.77 3056.06,-293.59 3056.77,-294.43 3057.35,-295.29 3057.79,-296.17 3058.09,-297.07 3058.27,-297.98 3058.32,-298.9 3058.24,-299.83 3058.04,-300.77 3057.72,-301.71 3057.29,-302.65 3056.75,-303.59 3056.11,-304.53 3055.37,-305.46 3054.53,-306.38 3053.61,-307.29 3052.6,-308.19 3051.52,-309.07 3050.37,-309.93 3049.16,-310.77 3047.88,-311.59 3046.55,-312.38 3045.17,-313.14 3043.74,-313.87 3042.28,-314.57 3040.78,-315.24 3039.25,-315.87 3037.69,-316.46 3036.11,-317.02 3034.5,-317.53 3032.88,-318 3031.24,-318.43 3029.59,-318.81 3027.93,-319.15 3026.27,-319.44 3024.59,-319.69 3022.91,-319.88 3021.22,-320.03 3019.53,-320.13 3017.85,-320.18 3016.15,-320.18 3014.47,-320.13 3012.78,-320.03 3011.09,-319.88 3009.41,-319.69 3007.73,-319.44 3006.07,-319.15 3004.41,-318.81 3002.76,-318.43 3001.12,-318 2999.5,-317.53 2997.89,-317.02 2996.31,-316.46 2994.75,-315.87 2993.22,-315.24 2991.72,-314.57 2990.26,-313.87 2988.83,-313.14 2987.45,-312.38 2986.12,-311.59 2984.84,-310.77 2983.63,-309.93 2982.48,-309.07 2981.4,-308.19 2980.39,-307.29 2979.47,-306.38 2978.63,-305.46 2977.89,-304.53 2977.25,-303.59 2976.71,-302.65 2976.28,-301.71 2975.96,-300.77 2975.76,-299.83 2975.68,-298.9 2975.73,-297.98 2975.91,-297.07 2976.21,-296.17 2976.65,-295.29 2977.23,-294.43 2977.94,-293.59 2978.78,-292.77 2979.76,-291.98 2980.88,-291.22 2982.12,-290.49 2983.5,-289.78 2985,-289.12 2986.62,-288.49 2988.36,-287.89 2990.21,-287.34 2992.16,-286.83 2994.21,-286.36 2996.36,-285.93 2998.58,-285.54 3000.88,-285.21 3003.25,-284.91 3005.67,-284.67 3008.14,-284.47 3010.65,-284.33 3013.18,-284.23 3015.72,-284.18 3018.28,-284.18 3020.82,-284.23"/>
<text text-anchor="middle" x="3017" y="-297.9" font-family="Times,serif" font-size="12.00">interfaces</text>
</g>
<!-- node24 -->
<g id="node33" class="node">
<title>node24</title>
<polygon fill="none" stroke="black" points="1010.54,-284.23 1015.53,-284.33 1020.47,-284.47 1025.33,-284.67 1030.11,-284.91 1034.77,-285.21 1039.31,-285.54 1043.7,-285.93 1047.92,-286.36 1051.97,-286.83 1055.82,-287.34 1059.47,-287.89 1062.89,-288.49 1066.09,-289.12 1069.05,-289.78 1071.76,-290.49 1074.21,-291.22 1076.41,-291.98 1078.34,-292.77 1080.01,-293.59 1081.4,-294.43 1082.54,-295.29 1083.4,-296.17 1084.01,-297.07 1084.36,-297.98 1084.45,-298.9 1084.29,-299.83 1083.9,-300.77 1083.27,-301.71 1082.42,-302.65 1081.36,-303.59 1080.09,-304.53 1078.63,-305.46 1076.98,-306.38 1075.17,-307.29 1073.19,-308.19 1071.06,-309.07 1068.79,-309.93 1066.39,-310.77 1063.87,-311.59 1061.25,-312.38 1058.53,-313.14 1055.72,-313.87 1052.83,-314.57 1049.88,-315.24 1046.86,-315.87 1043.78,-316.46 1040.66,-317.02 1037.5,-317.53 1034.31,-318 1031.08,-318.43 1027.83,-318.81 1024.55,-319.15 1021.27,-319.44 1017.96,-319.69 1014.65,-319.88 1011.32,-320.03 1008,-320.13 1004.67,-320.18 1001.33,-320.18 998,-320.13 994.68,-320.03 991.35,-319.88 988.04,-319.69 984.73,-319.44 981.45,-319.15 978.17,-318.81 974.92,-318.43 971.69,-318 968.5,-317.53 965.34,-317.02 962.22,-316.46 959.14,-315.87 956.12,-315.24 953.17,-314.57 950.28,-313.87 947.47,-313.14 944.75,-312.38 942.13,-311.59 939.61,-310.77 937.21,-309.93 934.94,-309.07 932.81,-308.19 930.83,-307.29 929.02,-306.38 927.37,-305.46 925.91,-304.53 924.64,-303.59 923.58,-302.65 922.73,-301.71 922.1,-300.77 921.71,-299.83 921.55,-298.9 921.64,-297.98 921.99,-297.07 922.6,-296.17 923.46,-295.29 924.6,-294.43 925.99,-293.59 927.66,-292.77 929.59,-291.98 931.79,-291.22 934.24,-290.49 936.95,-289.78 939.91,-289.12 943.11,-288.49 946.53,-287.89 950.18,-287.34 954.03,-286.83 958.08,-286.36 962.3,-285.93 966.69,-285.54 971.23,-285.21 975.89,-284.91 980.67,-284.67 985.53,-284.47 990.47,-284.33 995.46,-284.23 1000.48,-284.18 1005.52,-284.18 1010.54,-284.23"/>
<text text-anchor="middle" x="1003" y="-297.9" font-family="Times,serif" font-size="12.00">light&#45;barrier&#45;gpio&#45;tests</text>
</g>
<!-- node24&#45;&gt;node1 -->
<g id="edge30" class="edge">
<title>node24&#45;&gt;node1</title>
<path fill="none" stroke="black" stroke-dasharray="1,5" d="M1046.43,-285.76C1096.51,-267.99 1177.85,-239.11 1224.04,-222.72"/>
<polygon fill="black" stroke="black" points="1225.03,-226.08 1233.28,-219.44 1222.69,-219.48 1225.03,-226.08"/>
</g>
<!-- node24&#45;&gt;node6 -->
<g id="edge31" class="edge">
<title>node24&#45;&gt;node6</title>
<path fill="none" stroke="black" stroke-dasharray="1,5" d="M1046.93,-285.85C1061.71,-281.32 1078.4,-276.87 1094,-274.24 1265.54,-245.35 1316.55,-299.69 1485,-256.24 1499.03,-252.62 1513.44,-246.74 1526.59,-240.37"/>
<polygon fill="black" stroke="black" points="1528.14,-243.51 1535.49,-235.88 1524.98,-237.26 1528.14,-243.51"/>
</g>
<!-- node25 -->
<g id="node34" class="node">
<title>node25</title>
<polygon fill="none" stroke="black" points="3112.02,-284.23 3114.03,-284.33 3116.01,-284.47 3117.96,-284.67 3119.88,-284.91 3121.75,-285.21 3123.57,-285.54 3125.33,-285.93 3127.02,-286.36 3128.65,-286.83 3130.19,-287.34 3131.66,-287.89 3133.03,-288.49 3134.31,-289.12 3135.5,-289.78 3136.59,-290.49 3137.57,-291.22 3138.45,-291.98 3139.23,-292.77 3139.9,-293.59 3140.46,-294.43 3140.91,-295.29 3141.26,-296.17 3141.5,-297.07 3141.64,-297.98 3141.68,-298.9 3141.62,-299.83 3141.46,-300.77 3141.21,-301.71 3140.87,-302.65 3140.44,-303.59 3139.93,-304.53 3139.35,-305.46 3138.69,-306.38 3137.96,-307.29 3137.16,-308.19 3136.31,-309.07 3135.4,-309.93 3134.43,-310.77 3133.43,-311.59 3132.37,-312.38 3131.28,-313.14 3130.15,-313.87 3129,-314.57 3127.81,-315.24 3126.6,-315.87 3125.36,-316.46 3124.11,-317.02 3122.84,-317.53 3121.56,-318 3120.27,-318.43 3118.96,-318.81 3117.65,-319.15 3116.33,-319.44 3115,-319.69 3113.67,-319.88 3112.34,-320.03 3111.01,-320.13 3109.67,-320.18 3108.33,-320.18 3106.99,-320.13 3105.66,-320.03 3104.33,-319.88 3103,-319.69 3101.67,-319.44 3100.35,-319.15 3099.04,-318.81 3097.73,-318.43 3096.44,-318 3095.16,-317.53 3093.89,-317.02 3092.64,-316.46 3091.4,-315.87 3090.19,-315.24 3089,-314.57 3087.85,-313.87 3086.72,-313.14 3085.63,-312.38 3084.57,-311.59 3083.57,-310.77 3082.6,-309.93 3081.69,-309.07 3080.84,-308.19 3080.04,-307.29 3079.31,-306.38 3078.65,-305.46 3078.07,-304.53 3077.56,-303.59 3077.13,-302.65 3076.79,-301.71 3076.54,-300.77 3076.38,-299.83 3076.32,-298.9 3076.36,-297.98 3076.5,-297.07 3076.74,-296.17 3077.09,-295.29 3077.54,-294.43 3078.1,-293.59 3078.77,-292.77 3079.55,-291.98 3080.43,-291.22 3081.41,-290.49 3082.5,-289.78 3083.69,-289.12 3084.97,-288.49 3086.34,-287.89 3087.81,-287.34 3089.35,-286.83 3090.98,-286.36 3092.67,-285.93 3094.43,-285.54 3096.25,-285.21 3098.12,-284.91 3100.04,-284.67 3101.99,-284.47 3103.97,-284.33 3105.98,-284.23 3107.99,-284.18 3110.01,-284.18 3112.02,-284.23"/>
<text text-anchor="middle" x="3109" y="-297.9" font-family="Times,serif" font-size="12.00">main&#45;c</text>
</g>
<!-- node26 -->
<g id="node35" class="node">
<title>node26</title>
<polygon fill="none" stroke="black" points="3205.87,-284.23 3208.43,-284.33 3210.97,-284.47 3213.47,-284.67 3215.92,-284.91 3218.32,-285.21 3220.64,-285.54 3222.9,-285.93 3225.07,-286.36 3227.15,-286.83 3229.12,-287.34 3231,-287.89 3232.76,-288.49 3234.4,-289.12 3235.92,-289.78 3237.31,-290.49 3238.57,-291.22 3239.7,-291.98 3240.69,-292.77 3241.54,-293.59 3242.26,-294.43 3242.84,-295.29 3243.29,-296.17 3243.6,-297.07 3243.78,-297.98 3243.82,-298.9 3243.75,-299.83 3243.54,-300.77 3243.22,-301.71 3242.79,-302.65 3242.24,-303.59 3241.59,-304.53 3240.84,-305.46 3239.99,-306.38 3239.06,-307.29 3238.04,-308.19 3236.95,-309.07 3235.78,-309.93 3234.55,-310.77 3233.26,-311.59 3231.91,-312.38 3230.52,-313.14 3229.07,-313.87 3227.59,-314.57 3226.07,-315.24 3224.52,-315.87 3222.94,-316.46 3221.34,-317.02 3219.72,-317.53 3218.08,-318 3216.42,-318.43 3214.75,-318.81 3213.07,-319.15 3211.38,-319.44 3209.68,-319.69 3207.98,-319.88 3206.27,-320.03 3204.57,-320.13 3202.86,-320.18 3201.14,-320.18 3199.43,-320.13 3197.73,-320.03 3196.02,-319.88 3194.32,-319.69 3192.62,-319.44 3190.93,-319.15 3189.25,-318.81 3187.58,-318.43 3185.92,-318 3184.28,-317.53 3182.66,-317.02 3181.06,-316.46 3179.48,-315.87 3177.93,-315.24 3176.41,-314.57 3174.93,-313.87 3173.48,-313.14 3172.09,-312.38 3170.74,-311.59 3169.45,-310.77 3168.22,-309.93 3167.05,-309.07 3165.96,-308.19 3164.94,-307.29 3164.01,-306.38 3163.16,-305.46 3162.41,-304.53 3161.76,-303.59 3161.21,-302.65 3160.78,-301.71 3160.46,-300.77 3160.25,-299.83 3160.18,-298.9 3160.22,-297.98 3160.4,-297.07 3160.71,-296.17 3161.16,-295.29 3161.74,-294.43 3162.46,-293.59 3163.31,-292.77 3164.3,-291.98 3165.43,-291.22 3166.69,-290.49 3168.08,-289.78 3169.6,-289.12 3171.24,-288.49 3173,-287.89 3174.88,-287.34 3176.85,-286.83 3178.93,-286.36 3181.1,-285.93 3183.36,-285.54 3185.68,-285.21 3188.08,-284.91 3190.53,-284.67 3193.03,-284.47 3195.57,-284.33 3198.13,-284.23 3200.71,-284.18 3203.29,-284.18 3205.87,-284.23"/>
<text text-anchor="middle" x="3202" y="-297.9" font-family="Times,serif" font-size="12.00">main&#45;c++</text>
</g>
<!-- node27 -->
<g id="node36" class="node">
<title>node27</title>
<polygon fill="none" stroke="black" points="1411.6,-284.23 1415.96,-284.33 1420.29,-284.47 1424.55,-284.67 1428.73,-284.91 1432.81,-285.21 1436.78,-285.54 1440.62,-285.93 1444.32,-286.36 1447.86,-286.83 1451.23,-287.34 1454.42,-287.89 1457.42,-288.49 1460.22,-289.12 1462.81,-289.78 1465.18,-290.49 1467.33,-291.22 1469.25,-291.98 1470.94,-292.77 1472.4,-293.59 1473.62,-294.43 1474.62,-295.29 1475.37,-296.17 1475.9,-297.07 1476.21,-297.98 1476.29,-298.9 1476.15,-299.83 1475.81,-300.77 1475.26,-301.71 1474.52,-302.65 1473.59,-303.59 1472.48,-304.53 1471.2,-305.46 1469.76,-306.38 1468.16,-307.29 1466.43,-308.19 1464.57,-309.07 1462.58,-309.93 1460.48,-310.77 1458.28,-311.59 1455.98,-312.38 1453.6,-313.14 1451.14,-313.87 1448.62,-314.57 1446.03,-315.24 1443.39,-315.87 1440.7,-316.46 1437.97,-317.02 1435.2,-317.53 1432.4,-318 1429.58,-318.43 1426.73,-318.81 1423.87,-319.15 1420.99,-319.44 1418.1,-319.69 1415.19,-319.88 1412.29,-320.03 1409.37,-320.13 1406.46,-320.18 1403.54,-320.18 1400.63,-320.13 1397.71,-320.03 1394.81,-319.88 1391.9,-319.69 1389.01,-319.44 1386.13,-319.15 1383.27,-318.81 1380.42,-318.43 1377.6,-318 1374.8,-317.53 1372.03,-317.02 1369.3,-316.46 1366.61,-315.87 1363.97,-315.24 1361.38,-314.57 1358.86,-313.87 1356.4,-313.14 1354.02,-312.38 1351.72,-311.59 1349.52,-310.77 1347.42,-309.93 1345.43,-309.07 1343.57,-308.19 1341.84,-307.29 1340.24,-306.38 1338.8,-305.46 1337.52,-304.53 1336.41,-303.59 1335.48,-302.65 1334.74,-301.71 1334.19,-300.77 1333.85,-299.83 1333.71,-298.9 1333.79,-297.98 1334.1,-297.07 1334.63,-296.17 1335.38,-295.29 1336.38,-294.43 1337.6,-293.59 1339.06,-292.77 1340.75,-291.98 1342.67,-291.22 1344.82,-290.49 1347.19,-289.78 1349.78,-289.12 1352.58,-288.49 1355.58,-287.89 1358.77,-287.34 1362.14,-286.83 1365.68,-286.36 1369.38,-285.93 1373.22,-285.54 1377.19,-285.21 1381.27,-284.91 1385.45,-284.67 1389.71,-284.47 1394.04,-284.33 1398.4,-284.23 1402.8,-284.18 1407.2,-284.18 1411.6,-284.23"/>
<text text-anchor="middle" x="1405" y="-297.9" font-family="Times,serif" font-size="12.00">motor&#45;stepper&#45;tests</text>
</g>
<!-- node27&#45;&gt;node1 -->
<g id="edge32" class="edge">
<title>node27&#45;&gt;node1</title>
<path fill="none" stroke="black" stroke-dasharray="1,5" d="M1378.56,-284.72C1352.91,-268.76 1314.1,-244.6 1287.71,-228.18"/>
<polygon fill="black" stroke="black" points="1289.88,-225.41 1279.54,-223.09 1286.18,-231.35 1289.88,-225.41"/>
</g>
<!-- node27&#45;&gt;node6 -->
<g id="edge33" class="edge">
<title>node27&#45;&gt;node6</title>
<path fill="none" stroke="black" stroke-dasharray="1,5" d="M1448.84,-286.51C1487.21,-273.66 1537.01,-256.91 1538,-256.24 1542.49,-253.24 1546.77,-249.61 1550.77,-245.71"/>
<polygon fill="black" stroke="black" points="1553.17,-248.27 1557.47,-238.58 1548.07,-243.47 1553.17,-248.27"/>
</g>
<!-- node28 -->
<g id="node37" class="node">
<title>node28</title>
<polygon fill="none" stroke="black" points="1747.75,-284.23 1751.56,-284.33 1755.33,-284.47 1759.04,-284.67 1762.68,-284.91 1766.24,-285.21 1769.7,-285.54 1773.05,-285.93 1776.28,-286.36 1779.36,-286.83 1782.3,-287.34 1785.08,-287.89 1787.7,-288.49 1790.14,-289.12 1792.39,-289.78 1794.46,-290.49 1796.33,-291.22 1798.01,-291.98 1799.48,-292.77 1800.75,-293.59 1801.82,-294.43 1802.69,-295.29 1803.35,-296.17 1803.81,-297.07 1804.07,-297.98 1804.14,-298.9 1804.03,-299.83 1803.73,-300.77 1803.25,-301.71 1802.6,-302.65 1801.79,-303.59 1800.82,-304.53 1799.71,-305.46 1798.45,-306.38 1797.06,-307.29 1795.55,-308.19 1793.93,-309.07 1792.2,-309.93 1790.37,-310.77 1788.45,-311.59 1786.44,-312.38 1784.37,-313.14 1782.23,-313.87 1780.02,-314.57 1777.77,-315.24 1775.46,-315.87 1773.12,-316.46 1770.74,-317.02 1768.33,-317.53 1765.89,-318 1763.42,-318.43 1760.94,-318.81 1758.45,-319.15 1755.94,-319.44 1753.42,-319.69 1750.89,-319.88 1748.35,-320.03 1745.81,-320.13 1743.27,-320.18 1740.73,-320.18 1738.19,-320.13 1735.65,-320.03 1733.11,-319.88 1730.58,-319.69 1728.06,-319.44 1725.55,-319.15 1723.06,-318.81 1720.58,-318.43 1718.11,-318 1715.67,-317.53 1713.26,-317.02 1710.88,-316.46 1708.54,-315.87 1706.23,-315.24 1703.98,-314.57 1701.77,-313.87 1699.63,-313.14 1697.56,-312.38 1695.55,-311.59 1693.63,-310.77 1691.8,-309.93 1690.07,-309.07 1688.45,-308.19 1686.94,-307.29 1685.55,-306.38 1684.29,-305.46 1683.18,-304.53 1682.21,-303.59 1681.4,-302.65 1680.75,-301.71 1680.27,-300.77 1679.97,-299.83 1679.86,-298.9 1679.93,-297.98 1680.19,-297.07 1680.65,-296.17 1681.31,-295.29 1682.18,-294.43 1683.25,-293.59 1684.52,-292.77 1685.99,-291.98 1687.67,-291.22 1689.54,-290.49 1691.61,-289.78 1693.86,-289.12 1696.3,-288.49 1698.92,-287.89 1701.7,-287.34 1704.64,-286.83 1707.72,-286.36 1710.95,-285.93 1714.3,-285.54 1717.76,-285.21 1721.32,-284.91 1724.96,-284.67 1728.67,-284.47 1732.44,-284.33 1736.25,-284.23 1740.08,-284.18 1743.92,-284.18 1747.75,-284.23"/>
<text text-anchor="middle" x="1742" y="-297.9" font-family="Times,serif" font-size="12.00">motorLED&#45;tests</text>
</g>
<!-- node28&#45;&gt;node1 -->
<g id="edge34" class="edge">
<title>node28&#45;&gt;node1</title>
<path fill="none" stroke="black" stroke-dasharray="1,5" d="M1706.21,-286.15C1694.79,-281.8 1682.01,-277.39 1670,-274.24 1599.71,-255.83 1385.93,-226.86 1297.71,-215.3"/>
<polygon fill="black" stroke="black" points="1298.24,-211.84 1287.87,-214.02 1297.33,-218.78 1298.24,-211.84"/>
</g>
<!-- node28&#45;&gt;node6 -->
<g id="edge35" class="edge">
<title>node28&#45;&gt;node6</title>
<path fill="none" stroke="black" stroke-dasharray="1,5" d="M1713.43,-285.35C1690.87,-272.85 1658.76,-255.06 1631.46,-239.93"/>
<polygon fill="black" stroke="black" points="1633.42,-237.01 1622.98,-235.23 1630.03,-243.14 1633.42,-237.01"/>
</g>
<!-- node29 -->
<g id="node38" class="node">
<title>node29</title>
<polygon fill="none" stroke="black" points="3298.07,-284.23 3300.1,-284.33 3302.12,-284.47 3304.1,-284.67 3306.05,-284.91 3307.95,-285.21 3309.79,-285.54 3311.58,-285.93 3313.3,-286.36 3314.95,-286.83 3316.52,-287.34 3318.01,-287.89 3319.41,-288.49 3320.71,-289.12 3321.91,-289.78 3323.02,-290.49 3324.02,-291.22 3324.91,-291.98 3325.7,-292.77 3326.38,-293.59 3326.95,-294.43 3327.41,-295.29 3327.76,-296.17 3328.01,-297.07 3328.15,-297.98 3328.19,-298.9 3328.13,-299.83 3327.97,-300.77 3327.71,-301.71 3327.36,-302.65 3326.93,-303.59 3326.41,-304.53 3325.82,-305.46 3325.15,-306.38 3324.41,-307.29 3323.6,-308.19 3322.73,-309.07 3321.81,-309.93 3320.83,-310.77 3319.8,-311.59 3318.74,-312.38 3317.63,-313.14 3316.48,-313.87 3315.31,-314.57 3314.1,-315.24 3312.87,-315.87 3311.62,-316.46 3310.35,-317.02 3309.06,-317.53 3307.76,-318 3306.44,-318.43 3305.12,-318.81 3303.78,-319.15 3302.44,-319.44 3301.1,-319.69 3299.75,-319.88 3298.39,-320.03 3297.04,-320.13 3295.68,-320.18 3294.32,-320.18 3292.96,-320.13 3291.61,-320.03 3290.25,-319.88 3288.9,-319.69 3287.56,-319.44 3286.22,-319.15 3284.88,-318.81 3283.56,-318.43 3282.24,-318 3280.94,-317.53 3279.65,-317.02 3278.38,-316.46 3277.13,-315.87 3275.9,-315.24 3274.69,-314.57 3273.52,-313.87 3272.37,-313.14 3271.26,-312.38 3270.2,-311.59 3269.17,-310.77 3268.19,-309.93 3267.27,-309.07 3266.4,-308.19 3265.59,-307.29 3264.85,-306.38 3264.18,-305.46 3263.59,-304.53 3263.07,-303.59 3262.64,-302.65 3262.29,-301.71 3262.03,-300.77 3261.87,-299.83 3261.81,-298.9 3261.85,-297.98 3261.99,-297.07 3262.24,-296.17 3262.59,-295.29 3263.05,-294.43 3263.62,-293.59 3264.3,-292.77 3265.09,-291.98 3265.98,-291.22 3266.98,-290.49 3268.09,-289.78 3269.29,-289.12 3270.59,-288.49 3271.99,-287.89 3273.48,-287.34 3275.05,-286.83 3276.7,-286.36 3278.42,-285.93 3280.21,-285.54 3282.05,-285.21 3283.95,-284.91 3285.9,-284.67 3287.88,-284.47 3289.9,-284.33 3291.93,-284.23 3293.97,-284.18 3296.03,-284.18 3298.07,-284.23"/>
<text text-anchor="middle" x="3295" y="-297.9" font-family="Times,serif" font-size="12.00">point&#45;c</text>
</g>
<!-- node30 -->
<g id="node39" class="node">
<title>node30</title>
<polygon fill="none" stroke="black" points="3392.92,-284.23 3395.51,-284.33 3398.08,-284.47 3400.61,-284.67 3403.09,-284.91 3405.51,-285.21 3407.87,-285.54 3410.15,-285.93 3412.35,-286.36 3414.45,-286.83 3416.45,-287.34 3418.35,-287.89 3420.13,-288.49 3421.79,-289.12 3423.33,-289.78 3424.74,-290.49 3426.01,-291.22 3427.15,-291.98 3428.16,-292.77 3429.02,-293.59 3429.75,-294.43 3430.34,-295.29 3430.79,-296.17 3431.1,-297.07 3431.28,-297.98 3431.33,-298.9 3431.25,-299.83 3431.05,-300.77 3430.72,-301.71 3430.28,-302.65 3429.73,-303.59 3429.07,-304.53 3428.31,-305.46 3427.45,-306.38 3426.51,-307.29 3425.48,-308.19 3424.37,-309.07 3423.19,-309.93 3421.95,-310.77 3420.64,-311.59 3419.28,-312.38 3417.86,-313.14 3416.4,-313.87 3414.9,-314.57 3413.36,-315.24 3411.8,-315.87 3410.2,-316.46 3408.58,-317.02 3406.93,-317.53 3405.27,-318 3403.59,-318.43 3401.9,-318.81 3400.2,-319.15 3398.49,-319.44 3396.78,-319.69 3395.05,-319.88 3393.33,-320.03 3391.6,-320.13 3389.87,-320.18 3388.13,-320.18 3386.4,-320.13 3384.67,-320.03 3382.95,-319.88 3381.22,-319.69 3379.51,-319.44 3377.8,-319.15 3376.1,-318.81 3374.41,-318.43 3372.73,-318 3371.07,-317.53 3369.42,-317.02 3367.8,-316.46 3366.2,-315.87 3364.64,-315.24 3363.1,-314.57 3361.6,-313.87 3360.14,-313.14 3358.72,-312.38 3357.36,-311.59 3356.05,-310.77 3354.81,-309.93 3353.63,-309.07 3352.52,-308.19 3351.49,-307.29 3350.55,-306.38 3349.69,-305.46 3348.93,-304.53 3348.27,-303.59 3347.72,-302.65 3347.28,-301.71 3346.95,-300.77 3346.75,-299.83 3346.67,-298.9 3346.72,-297.98 3346.9,-297.07 3347.21,-296.17 3347.66,-295.29 3348.25,-294.43 3348.98,-293.59 3349.84,-292.77 3350.85,-291.98 3351.99,-291.22 3353.26,-290.49 3354.67,-289.78 3356.21,-289.12 3357.87,-288.49 3359.65,-287.89 3361.55,-287.34 3363.55,-286.83 3365.65,-286.36 3367.85,-285.93 3370.13,-285.54 3372.49,-285.21 3374.91,-284.91 3377.39,-284.67 3379.92,-284.47 3382.49,-284.33 3385.08,-284.23 3387.69,-284.18 3390.31,-284.18 3392.92,-284.23"/>
<text text-anchor="middle" x="3389" y="-297.9" font-family="Times,serif" font-size="12.00">point&#45;c++</text>
</g>
<!-- node31 -->
<g id="node40" class="node">
<title>node31</title>
<polygon fill="none" stroke="black" points="2010.3,-284.23 2015.14,-284.33 2019.92,-284.47 2024.64,-284.67 2029.26,-284.91 2033.78,-285.21 2038.18,-285.54 2042.43,-285.93 2046.52,-286.36 2050.44,-286.83 2054.17,-287.34 2057.71,-287.89 2061.03,-288.49 2064.12,-289.12 2066.99,-289.78 2069.61,-290.49 2071.99,-291.22 2074.12,-291.98 2075.99,-292.77 2077.6,-293.59 2078.96,-294.43 2080.06,-295.29 2080.9,-296.17 2081.48,-297.07 2081.82,-297.98 2081.91,-298.9 2081.76,-299.83 2081.38,-300.77 2080.77,-301.71 2079.95,-302.65 2078.92,-303.59 2077.69,-304.53 2076.27,-305.46 2074.68,-306.38 2072.92,-307.29 2071,-308.19 2068.93,-309.07 2066.74,-309.93 2064.41,-310.77 2061.97,-311.59 2059.43,-312.38 2056.8,-313.14 2054.08,-313.87 2051.28,-314.57 2048.42,-315.24 2045.49,-315.87 2042.51,-316.46 2039.49,-317.02 2036.43,-317.53 2033.33,-318 2030.2,-318.43 2027.05,-318.81 2023.88,-319.15 2020.7,-319.44 2017.49,-319.69 2014.28,-319.88 2011.07,-320.03 2007.84,-320.13 2004.61,-320.18 2001.39,-320.18 1998.16,-320.13 1994.93,-320.03 1991.72,-319.88 1988.51,-319.69 1985.3,-319.44 1982.12,-319.15 1978.95,-318.81 1975.8,-318.43 1972.67,-318 1969.57,-317.53 1966.51,-317.02 1963.49,-316.46 1960.51,-315.87 1957.58,-315.24 1954.72,-314.57 1951.92,-313.87 1949.2,-313.14 1946.57,-312.38 1944.03,-311.59 1941.59,-310.77 1939.26,-309.93 1937.07,-309.07 1935,-308.19 1933.08,-307.29 1931.32,-306.38 1929.73,-305.46 1928.31,-304.53 1927.08,-303.59 1926.05,-302.65 1925.23,-301.71 1924.62,-300.77 1924.24,-299.83 1924.09,-298.9 1924.18,-297.98 1924.52,-297.07 1925.1,-296.17 1925.94,-295.29 1927.04,-294.43 1928.4,-293.59 1930.01,-292.77 1931.88,-291.98 1934.01,-291.22 1936.39,-290.49 1939.01,-289.78 1941.88,-289.12 1944.97,-288.49 1948.29,-287.89 1951.83,-287.34 1955.56,-286.83 1959.48,-286.36 1963.57,-285.93 1967.82,-285.54 1972.22,-285.21 1976.74,-284.91 1981.36,-284.67 1986.08,-284.47 1990.86,-284.33 1995.7,-284.23 2000.56,-284.18 2005.44,-284.18 2010.3,-284.23"/>
<text text-anchor="middle" x="2003" y="-297.9" font-family="Times,serif" font-size="12.00">push&#45;button&#45;gpio&#45;test</text>
</g>
<!-- node31&#45;&gt;node1 -->
<g id="edge36" class="edge">
<title>node31&#45;&gt;node1</title>
<path fill="none" stroke="black" stroke-dasharray="1,5" d="M1959.58,-286C1945.51,-281.59 1929.73,-277.18 1915,-274.24 1727.31,-236.86 1676.46,-255.92 1486,-237.24 1419.65,-230.74 1342.63,-221.17 1297.52,-215.36"/>
<polygon fill="black" stroke="black" points="1298.08,-211.91 1287.72,-214.09 1297.19,-218.85 1298.08,-211.91"/>
</g>
<!-- node31&#45;&gt;node6 -->
<g id="edge37" class="edge">
<title>node31&#45;&gt;node6</title>
<path fill="none" stroke="black" stroke-dasharray="1,5" d="M1958.09,-286.18C1944.36,-281.94 1929.15,-277.57 1915,-274.24 1817.63,-251.33 1791.08,-256.88 1693,-237.24 1681.07,-234.85 1668.49,-232.13 1656.21,-229.34"/>
<polygon fill="black" stroke="black" points="1657.04,-225.94 1646.51,-227.12 1655.47,-232.77 1657.04,-225.94"/>
</g>
<!-- node32 -->
<g id="node41" class="node">
<title>node32</title>
<polygon fill="none" stroke="black" points="594.59,-284.23 596.96,-284.33 599.32,-284.47 601.63,-284.67 603.91,-284.91 606.13,-285.21 608.29,-285.54 610.38,-285.93 612.39,-286.36 614.31,-286.83 616.15,-287.34 617.88,-287.89 619.51,-288.49 621.04,-289.12 622.44,-289.78 623.73,-290.49 624.9,-291.22 625.95,-291.98 626.87,-292.77 627.66,-293.59 628.33,-294.43 628.87,-295.29 629.28,-296.17 629.57,-297.07 629.73,-297.98 629.78,-298.9 629.7,-299.83 629.52,-300.77 629.22,-301.71 628.81,-302.65 628.31,-303.59 627.7,-304.53 627.01,-305.46 626.22,-306.38 625.36,-307.29 624.42,-308.19 623.4,-309.07 622.32,-309.93 621.18,-310.77 619.98,-311.59 618.73,-312.38 617.44,-313.14 616.1,-313.87 614.73,-314.57 613.32,-315.24 611.88,-315.87 610.42,-316.46 608.93,-317.02 607.43,-317.53 605.9,-318 604.37,-318.43 602.82,-318.81 601.26,-319.15 599.7,-319.44 598.12,-319.69 596.55,-319.88 594.96,-320.03 593.38,-320.13 591.79,-320.18 590.21,-320.18 588.62,-320.13 587.04,-320.03 585.45,-319.88 583.88,-319.69 582.3,-319.44 580.74,-319.15 579.18,-318.81 577.63,-318.43 576.1,-318 574.57,-317.53 573.07,-317.02 571.58,-316.46 570.12,-315.87 568.68,-315.24 567.27,-314.57 565.9,-313.87 564.56,-313.14 563.27,-312.38 562.02,-311.59 560.82,-310.77 559.68,-309.93 558.6,-309.07 557.58,-308.19 556.64,-307.29 555.78,-306.38 554.99,-305.46 554.3,-304.53 553.69,-303.59 553.19,-302.65 552.78,-301.71 552.48,-300.77 552.3,-299.83 552.22,-298.9 552.27,-297.98 552.43,-297.07 552.72,-296.17 553.13,-295.29 553.67,-294.43 554.34,-293.59 555.13,-292.77 556.05,-291.98 557.1,-291.22 558.27,-290.49 559.56,-289.78 560.96,-289.12 562.49,-288.49 564.12,-287.89 565.85,-287.34 567.69,-286.83 569.61,-286.36 571.62,-285.93 573.71,-285.54 575.87,-285.21 578.09,-284.91 580.37,-284.67 582.68,-284.47 585.04,-284.33 587.41,-284.23 589.8,-284.18 592.2,-284.18 594.59,-284.23"/>
<text text-anchor="middle" x="591" y="-297.9" font-family="Times,serif" font-size="12.00">run&#45;door</text>
</g>
<!-- node32&#45;&gt;node1 -->
<g id="edge38" class="edge">
<title>node32&#45;&gt;node1</title>
<path fill="none" stroke="black" stroke-dasharray="1,5" d="M613.06,-286.23C620.92,-281.61 630.05,-277.01 639,-274.24 730.22,-246.03 757.78,-262.37 853,-255.24 983.99,-245.43 1018.11,-256.81 1148,-237.24 1173.1,-233.46 1200.85,-226.73 1222.32,-220.94"/>
<polygon fill="black" stroke="black" points="1223.07,-224.37 1231.78,-218.34 1221.21,-217.62 1223.07,-224.37"/>
</g>
</g>
</svg>
